<?xml version="1.0" encoding="UTF-8"?>
<svg id="Layer_1" data-name="Layer 1" xmlns="http://www.w3.org/2000/svg" viewBox="0 0 1080 375.94">
  <defs>
    <style>
      .cls-1 {
        fill: #fff;
      }
    </style>
  </defs>
  <path class="cls-1" d="M822.37,72.8c-1.89.57-4,.98-6.34,1.18,2.33-.2,4.49-.55,6.34-1.18Z"/>
  <path class="cls-1" d="M822.4,38.44c-2.75-.77-5.97-1.15-9.69-1.15h-11.66s11.66.01,11.66.01c3.72,0,6.94.38,9.69,1.14Z"/>
  <path class="cls-1" d="M833.4,62.38c-.15.48-.43.89-.63,1.34.2-.45.47-.86.63-1.34.75-2.36,1.18-4.95,1.18-7.63,0-3.48-.8-6.42-2.22-8.93,1.41,2.51,2.18,5.45,2.18,8.9,0,2.68-.38,5.27-1.15,7.66Z"/>
  <rect class="cls-1" x="801.05" y="74.16" width="4.58" height=".05"/>
  <polygon class="cls-1" points="104.81 15.64 100.36 20.12 11.67 108.82 11.67 193.07 52.85 193.07 141.58 104.34 189.05 56.86 189.05 15.64 104.81 15.64"/>
  <polygon class="cls-1" points="11.67 281.76 89.59 281.76 178.28 193.07 52.85 193.07 11.67 234.25 11.67 281.76"/>
  <polygon class="cls-1" points="189.05 281.76 277.75 281.76 277.75 104.34 267.04 104.34 189.05 182.29 189.05 281.76"/>
  <polygon class="cls-1" points="189.05 56.86 189.05 104.34 267.04 104.34 277.75 93.63 277.75 15.64 230.27 15.64 189.05 56.86"/>
  <path class="cls-1" d="M31.79,304.48c-2.12,0-4.04.32-5.75.97-1.71.64-3.17,1.56-4.37,2.78s-2.13,2.71-2.78,4.5c-.66,1.77-.98,3.79-.98,6.08v3.68h-6.24v3.1c0,.55.18.98.55,1.27.37.3.85.51,1.45.61l4.24.51v33.66h7.45v-33.75h11.07v-5.41h-11.3v-3.45c0-1.65.19-3.05.55-4.18.36-1.14.89-2.05,1.58-2.73.69-.68,1.52-1.18,2.49-1.47.97-.3,2.06-.46,3.26-.46h1.41c.42,0,.78-.04,1.09-.11.32-.08.57-.21.75-.37.18-.18.29-.42.31-.73l.16-3.77c-.76-.24-1.56-.42-2.39-.55-.84-.12-1.68-.19-2.55-.19Z"/>
  <path class="cls-1" d="M72.44,326.73c-1.65-1.77-3.65-3.14-6-4.1-2.35-.96-5-1.43-7.92-1.43s-5.58.47-7.95,1.43c-2.37.96-4.38,2.33-6.04,4.1-1.66,1.79-2.94,3.93-3.83,6.46-.89,2.52-1.34,5.36-1.34,8.49s.44,5.98,1.34,8.51c.89,2.55,2.17,4.71,3.83,6.48,1.66,1.79,3.68,3.14,6.04,4.1,2.37.96,5.01,1.44,7.95,1.44s5.57-.48,7.92-1.44c2.35-.96,4.35-2.31,6-4.1,1.65-1.77,2.91-3.93,3.81-6.48.89-2.53,1.34-5.37,1.34-8.51s-.45-5.97-1.34-8.49c-.89-2.53-2.16-4.68-3.81-6.46ZM67.06,352.54c-1.88,2.57-4.73,3.85-8.55,3.85s-6.76-1.27-8.65-3.85c-1.9-2.56-2.84-6.17-2.84-10.82s.95-8.24,2.84-10.82c1.9-2.59,4.78-3.89,8.65-3.89s6.67,1.3,8.55,3.89c1.88,2.59,2.82,6.2,2.82,10.82s-.94,8.26-2.82,10.82Z"/>
  <path class="cls-1" d="M104.42,321.12c-2.57,0-4.76.76-6.59,2.27-1.83,1.52-3.38,3.6-4.64,6.24l-.47-5.8c-.1-.76-.3-1.29-.61-1.58-.29-.29-.86-.43-1.67-.43h-4.26v39.82h7.45v-25c.5-1.3,1.05-2.46,1.63-3.49.58-1.01,1.25-1.88,2.02-2.59.75-.71,1.61-1.25,2.57-1.61.94-.36,2.05-.55,3.27-.55.86,0,1.66.08,2.38.24.72.17,1.25.24,1.63.24.66,0,1.08-.35,1.25-1.05l.5-5.58c-.55-.39-1.25-.68-2.02-.86-.75-.18-1.58-.28-2.44-.28Z"/>
  <path class="cls-1" d="M186.04,305.55c-.4.12-.78.53-1.12,1.18l-18.67,33.97c-.36.69-.69,1.38-1,2.1-.3.72-.6,1.45-.89,2.21-.57-1.51-1.19-2.92-1.84-4.24l-19.03-34.05c-.33-.65-.71-1.05-1.12-1.18-.4-.14-.96-.19-1.66-.19h-6.01v56.3h7.1v-40.49c0-.61-.03-1.25-.07-1.92-.06-.68-.11-1.37-.17-2.08l19.31,34.76c.62,1.23,1.61,1.84,2.93,1.84h1.15c.62,0,1.19-.15,1.7-.47.51-.3.91-.76,1.19-1.37l18.92-34.61c-.06.68-.1,1.34-.12,2.01-.03.65-.04,1.26-.04,1.84v40.49h7.1v-56.3h-5.99c-.71,0-1.27.06-1.67.19Z"/>
  <path class="cls-1" d="M230.11,325.3c-1.19-1.32-2.67-2.35-4.42-3.09-1.76-.72-3.75-1.09-6.01-1.09-3.11,0-5.95.53-8.53,1.56-2.59,1.05-4.98,2.62-7.21,4.72l1.34,2.42c.26.37.57.69.91.97.36.28.8.42,1.32.42.64,0,1.26-.22,1.88-.64.64-.42,1.36-.89,2.19-1.38.82-.51,1.8-.98,2.93-1.43,1.15-.43,2.56-.64,4.26-.64,2.51,0,4.42.76,5.7,2.3,1.3,1.52,1.95,3.79,1.95,6.8v2.99c-4.53.1-8.35.53-11.45,1.25-3.1.73-5.61,1.67-7.53,2.81s-3.31,2.42-4.15,3.86c-.86,1.44-1.27,2.95-1.27,4.51,0,1.81.29,3.38.87,4.69.6,1.32,1.38,2.42,2.39,3.31,1.01.9,2.19,1.55,3.56,1.99,1.36.43,2.82.64,4.39.64s2.89-.12,4.13-.39c1.23-.26,2.38-.64,3.47-1.14,1.08-.5,2.12-1.12,3.11-1.87s2.01-1.59,3.02-2.53l.83,3.57c.24.68.54,1.14.94,1.37.39.24.96.36,1.69.36h3.29v-25.43c0-2.24-.3-4.29-.93-6.16-.61-1.85-1.51-3.45-2.7-4.76ZM226.44,351.88c-.79.82-1.58,1.54-2.37,2.19-.78.64-1.61,1.18-2.48,1.62-.89.44-1.83.79-2.84,1.02-1,.24-2.09.35-3.27.35-.89,0-1.73-.11-2.49-.33-.78-.22-1.45-.55-2.02-1.01-.58-.46-1.02-1.05-1.36-1.79-.33-.73-.48-1.62-.48-2.63s.3-2.01.94-2.89c.62-.87,1.62-1.62,2.99-2.26,1.38-.62,3.17-1.14,5.36-1.52,2.2-.39,4.87-.64,8.01-.75v8Z"/>
  <path class="cls-1" d="M274.15,325.38c-1.12-1.33-2.51-2.35-4.17-3.09-1.66-.73-3.59-1.09-5.76-1.09-2.77,0-5.22.57-7.34,1.72-2.12,1.16-4.04,2.66-5.76,4.51l-.55-4.11c-.26-1-.91-1.49-1.97-1.49h-4.47v39.82h7.46v-29.23c1.48-1.65,3.1-2.93,4.82-3.88,1.73-.94,3.6-1.41,5.62-1.41,2.71,0,4.75.8,6.08,2.41s2.01,3.85,2.01,6.73v25.39h7.45v-25.39c0-2.24-.29-4.29-.86-6.13-.58-1.85-1.43-3.43-2.56-4.75Z"/>
  <path class="cls-1" d="M313.12,325.3c-1.19-1.32-2.67-2.35-4.42-3.09-1.76-.72-3.75-1.09-6.01-1.09-3.11,0-5.95.53-8.53,1.56-2.59,1.05-4.98,2.62-7.21,4.72l1.34,2.42c.26.37.57.69.91.97.36.28.8.42,1.32.42.64,0,1.26-.22,1.88-.64.64-.42,1.36-.89,2.19-1.38.82-.51,1.8-.98,2.93-1.43,1.15-.43,2.56-.64,4.26-.64,2.51,0,4.42.76,5.7,2.3,1.3,1.52,1.95,3.79,1.95,6.8v2.99c-4.53.1-8.35.53-11.45,1.25-3.1.73-5.61,1.67-7.53,2.81s-3.31,2.42-4.15,3.86c-.86,1.44-1.27,2.95-1.27,4.51,0,1.81.29,3.38.87,4.69.6,1.32,1.38,2.42,2.39,3.31,1.01.9,2.19,1.55,3.56,1.99,1.36.43,2.82.64,4.39.64s2.89-.12,4.12-.39,2.38-.64,3.47-1.14c1.08-.5,2.12-1.12,3.11-1.87,1-.75,2.01-1.59,3.02-2.53l.83,3.57c.24.68.54,1.14.94,1.37.39.24.96.36,1.69.36h3.29v-25.43c0-2.24-.3-4.29-.93-6.16-.61-1.85-1.51-3.45-2.7-4.76ZM309.46,351.88c-.79.82-1.58,1.54-2.37,2.19-.78.64-1.61,1.18-2.48,1.62-.89.44-1.83.79-2.84,1.02-1,.24-2.09.35-3.27.35-.89,0-1.73-.11-2.49-.33-.78-.22-1.45-.55-2.02-1.01-.58-.46-1.02-1.05-1.36-1.79-.33-.73-.48-1.62-.48-2.63s.3-2.01.94-2.89c.62-.87,1.62-1.62,2.99-2.26,1.38-.62,3.17-1.14,5.36-1.52,2.2-.39,4.87-.64,8.01-.75v8Z"/>
  <path class="cls-1" d="M345.92,321.73c-1.47-.37-3.07-.57-4.8-.57-2.21,0-4.26.3-6.12.9-1.85.61-3.46,1.47-4.8,2.59-1.36,1.12-2.41,2.48-3.16,4.04-.76,1.56-1.15,3.34-1.15,5.3,0,2.42.57,4.55,1.69,6.37,1.14,1.83,2.67,3.28,4.64,4.37-.84.43-1.58.91-2.21,1.45-.65.55-1.18,1.14-1.62,1.74-.43.62-.75,1.23-.96,1.85-.21.61-.32,1.2-.32,1.79,0,1.48.35,2.69,1.02,3.59.68.9,1.61,1.62,2.78,2.13-2.12.76-3.78,1.81-5,3.17-1.22,1.34-1.83,2.99-1.83,4.96,0,1.38.36,2.71,1.08,3.99.72,1.26,1.8,2.38,3.25,3.35,1.45.97,3.27,1.74,5.45,2.31,2.19.58,4.75.87,7.67.87s5.56-.39,7.89-1.14c2.33-.76,4.29-1.77,5.91-3,1.61-1.25,2.84-2.67,3.68-4.28s1.27-3.28,1.27-5.01c0-1.85-.39-3.35-1.15-4.51-.78-1.15-1.79-2.05-3.05-2.73-1.26-.66-2.69-1.14-4.28-1.43-1.59-.29-3.23-.48-4.9-.61-1.67-.11-3.31-.21-4.91-.25-1.59-.06-3.02-.19-4.28-.4-1.25-.21-2.27-.54-3.03-1-.78-.46-1.16-1.15-1.16-2.06,0-1.2.83-2.3,2.48-3.29,1.56.39,3.27.6,5.09.6,2.17,0,4.18-.3,6.02-.91,1.84-.6,3.43-1.45,4.78-2.59,1.33-1.12,2.37-2.46,3.11-4.04.75-1.56,1.12-3.34,1.12-5.29s-.42-3.82-1.22-5.5l4.36-.62c1.15-.24,1.72-.83,1.72-1.77v-2.74h-10.98c-1.26-.71-2.63-1.26-4.11-1.63ZM335.36,358.44c1.27.18,2.62.3,4.01.39,1.4.08,2.77.15,4.1.24,1.34.08,2.6.18,3.81.32,1.2.12,2.27.36,3.18.71.91.33,1.63.79,2.17,1.37.54.57.8,1.33.8,2.27,0,1-.26,1.91-.78,2.73-.53.83-1.29,1.54-2.28,2.15-1,.6-2.23,1.07-3.68,1.41-1.47.33-3.14.51-5.02.51s-3.57-.17-4.97-.47c-1.4-.32-2.55-.75-3.45-1.29-.9-.53-1.58-1.18-2.02-1.91-.44-.75-.66-1.55-.66-2.42,0-1.33.44-2.49,1.33-3.49.89-1,2.03-1.83,3.46-2.51ZM348.98,337.33c-.35.94-.87,1.74-1.58,2.42-.71.69-1.59,1.22-2.63,1.59-1.05.39-2.27.57-3.65.57s-2.56-.18-3.61-.57c-1.04-.37-1.91-.91-2.62-1.61-.71-.69-1.25-1.51-1.62-2.45-.36-.94-.54-1.98-.54-3.1,0-2.35.71-4.24,2.13-5.63,1.43-1.4,3.52-2.09,6.26-2.09s4.83.69,6.26,2.09,2.15,3.28,2.15,5.63c0,1.15-.18,2.2-.54,3.14Z"/>
  <path class="cls-1" d="M395.85,325.87c-1.48-1.52-3.25-2.67-5.29-3.47-2.05-.79-4.26-1.19-6.67-1.19-2.91,0-5.51.51-7.83,1.52-2.31,1.02-4.28,2.42-5.88,4.18-1.61,1.77-2.84,3.85-3.71,6.24-.86,2.39-1.29,4.97-1.29,7.75,0,3.45.47,6.51,1.43,9.15.96,2.66,2.28,4.89,3.99,6.67,1.7,1.8,3.72,3.16,6.06,4.08s4.89,1.4,7.63,1.4c1.44,0,2.89-.12,4.37-.36,1.48-.24,2.91-.61,4.31-1.12,1.38-.5,2.67-1.15,3.88-1.91,1.2-.78,2.27-1.72,3.18-2.81l-2.12-2.71c-.29-.47-.75-.71-1.38-.71-.47,0-1.01.19-1.65.6-.62.39-1.38.82-2.28,1.29-.91.47-1.98.9-3.23,1.3-1.25.39-2.73.58-4.46.58-1.83,0-3.49-.29-4.98-.87-1.48-.6-2.75-1.48-3.82-2.67-1.05-1.19-1.9-2.69-2.51-4.5-.62-1.8-.97-3.92-1.04-6.35h26.29c.68,0,1.14-.19,1.38-.58.25-.4.37-1.16.37-2.33,0-2.85-.42-5.37-1.25-7.59-.84-2.21-2.01-4.07-3.5-5.59ZM372.79,337.37c.47-3.35,1.63-5.98,3.5-7.88,1.87-1.9,4.44-2.84,7.71-2.84,1.58,0,2.98.26,4.21.8,1.22.54,2.26,1.27,3.11,2.21.84.94,1.5,2.06,1.94,3.38.44,1.3.66,2.74.66,4.32h-21.14Z"/>
  <path class="cls-1" d="M449.92,321.2c-1.3,0-2.59.15-3.86.47-1.27.3-2.46.79-3.59,1.45-1.14.65-2.15,1.48-3.06,2.51-.93,1.02-1.66,2.24-2.24,3.65-.73-2.49-1.92-4.46-3.57-5.91-1.65-1.45-3.81-2.17-6.48-2.17-2.39,0-4.5.55-6.31,1.69-1.8,1.12-3.43,2.56-4.9,4.3l-.51-3.88c-.26-1-.91-1.49-1.97-1.49h-4.47v39.82h7.46v-29.58c1.18-1.55,2.49-2.75,3.95-3.63,1.44-.89,2.99-1.32,4.64-1.32,2.41,0,4.24.75,5.48,2.26,1.25,1.49,1.85,3.79,1.85,6.88v25.39h7.46v-25.39c0-1.49.22-2.81.66-3.96.44-1.15,1.05-2.1,1.81-2.87.75-.76,1.63-1.33,2.64-1.73,1.01-.39,2.08-.58,3.2-.58,2.51,0,4.43.76,5.74,2.31,1.33,1.54,1.98,3.82,1.98,6.82v25.39h7.46v-25.39c0-4.83-1.16-8.55-3.49-11.16-2.34-2.6-5.63-3.9-9.9-3.9Z"/>
  <path class="cls-1" d="M502.1,325.87c-1.48-1.52-3.25-2.67-5.29-3.47-2.05-.79-4.26-1.19-6.67-1.19-2.91,0-5.51.51-7.83,1.52-2.31,1.02-4.28,2.42-5.88,4.18-1.61,1.77-2.84,3.85-3.71,6.24-.86,2.39-1.29,4.97-1.29,7.75,0,3.45.47,6.51,1.43,9.15.96,2.66,2.28,4.89,3.99,6.67,1.7,1.8,3.72,3.16,6.06,4.08s4.89,1.4,7.63,1.4c1.44,0,2.89-.12,4.37-.36,1.48-.24,2.91-.61,4.3-1.12,1.38-.5,2.67-1.15,3.88-1.91,1.2-.78,2.27-1.72,3.18-2.81l-2.12-2.71c-.29-.47-.75-.71-1.38-.71-.47,0-1.01.19-1.65.6-.62.39-1.38.82-2.28,1.29-.91.47-1.98.9-3.23,1.3-1.25.39-2.73.58-4.46.58-1.83,0-3.49-.29-4.98-.87-1.48-.6-2.75-1.48-3.82-2.67-1.05-1.19-1.9-2.69-2.51-4.5-.62-1.8-.97-3.92-1.04-6.35h26.29c.68,0,1.14-.19,1.38-.58.25-.4.37-1.16.37-2.33,0-2.85-.42-5.37-1.25-7.59-.84-2.21-2.01-4.07-3.5-5.59ZM479.04,337.37c.47-3.35,1.63-5.98,3.5-7.88,1.87-1.9,4.44-2.84,7.71-2.84,1.58,0,2.98.26,4.21.8,1.22.54,2.26,1.27,3.11,2.21.84.94,1.49,2.06,1.94,3.38.44,1.3.66,2.74.66,4.32h-21.14Z"/>
  <path class="cls-1" d="M545.21,325.38c-1.12-1.33-2.51-2.35-4.17-3.09s-3.59-1.09-5.76-1.09c-2.77,0-5.22.57-7.34,1.72-2.12,1.16-4.04,2.66-5.76,4.51l-.55-4.11c-.26-1-.91-1.49-1.97-1.49h-4.47v39.82h7.46v-29.23c1.48-1.65,3.1-2.93,4.82-3.88,1.73-.94,3.6-1.41,5.62-1.41,2.71,0,4.75.8,6.08,2.41s2.01,3.85,2.01,6.73v25.39h7.45v-25.39c0-2.24-.29-4.29-.86-6.13-.58-1.85-1.43-3.43-2.56-4.75Z"/>
  <path class="cls-1" d="M578.04,354.55c-.14-.11-.33-.15-.57-.15-.21,0-.44.08-.72.26-.28.19-.6.4-.97.64-.36.24-.8.44-1.33.62s-1.14.28-1.84.28c-1.26,0-2.27-.4-3.05-1.19-.78-.8-1.16-1.99-1.16-3.6v-23.5h11.35v-5.41h-11.35v-13.45h-3.77c-.47,0-.84.12-1.14.37-.29.25-.48.58-.58,1l-1.69,12.04-6.48.87v2.98c0,.53.14.93.43,1.2.29.26.65.4,1.11.4h4.66v24.02c0,3.35.86,5.91,2.59,7.7,1.73,1.77,4.18,2.66,7.38,2.66,1.83,0,3.6-.3,5.32-.94,1.72-.62,3.2-1.51,4.46-2.66l-2.2-3.57c-.15-.26-.3-.44-.46-.55Z"/>
  <path class="cls-1" d="M647.69,349.72c-.26,0-.5.07-.72.18-.22.12-.44.26-.65.46-.97.86-1.94,1.61-2.91,2.23-.97.64-2.01,1.14-3.11,1.54-1.12.39-2.33.68-3.63.89-1.32.19-2.8.29-4.44.29-2.66,0-5.16-.5-7.49-1.47-2.33-.98-4.35-2.41-6.06-4.26-1.72-1.85-3.06-4.14-4.04-6.85-.98-2.7-1.47-5.79-1.47-9.23s.47-6.45,1.41-9.15c.94-2.69,2.26-4.97,3.96-6.82,1.7-1.85,3.74-3.28,6.1-4.28,2.37-.98,4.96-1.48,7.79-1.48,2.37,0,4.37.25,5.99.75,1.62.48,2.98,1.05,4.07,1.66,1.08.61,1.95,1.18,2.62,1.66.68.5,1.26.75,1.76.75.44,0,.79-.08,1.04-.25.25-.17.46-.39.64-.65l2.67-3.77c-2.3-2.17-5-3.9-8.1-5.22-3.1-1.3-6.66-1.97-10.66-1.97s-7.81.71-11.2,2.12-6.3,3.39-8.73,5.91c-2.42,2.52-4.3,5.55-5.65,9.08-1.33,3.53-1.99,7.42-1.99,11.66s.64,8.13,1.9,11.66c1.27,3.53,3.07,6.56,5.41,9.09,2.34,2.55,5.18,4.51,8.49,5.92,3.31,1.41,7,2.12,11.07,2.12,4.64,0,8.61-.75,11.92-2.23,3.31-1.49,6.1-3.59,8.42-6.28l-3.23-3.53c-.33-.33-.73-.51-1.18-.51Z"/>
  <path class="cls-1" d="M689.1,326.73c-1.65-1.77-3.65-3.14-6.01-4.1-2.35-.96-5-1.43-7.92-1.43s-5.58.47-7.95,1.43c-2.37.96-4.39,2.33-6.05,4.1-1.66,1.79-2.93,3.93-3.82,6.46-.89,2.52-1.33,5.36-1.33,8.49s.44,5.98,1.33,8.51c.89,2.55,2.16,4.71,3.82,6.48,1.66,1.79,3.68,3.14,6.05,4.1,2.37.96,5.01,1.44,7.95,1.44s5.56-.48,7.92-1.44c2.35-.96,4.36-2.31,6.01-4.1,1.65-1.77,2.92-3.93,3.81-6.48.89-2.53,1.33-5.37,1.33-8.51s-.44-5.97-1.33-8.49c-.89-2.53-2.16-4.68-3.81-6.46ZM683.73,352.54c-1.88,2.57-4.73,3.85-8.55,3.85s-6.76-1.27-8.65-3.85c-1.9-2.56-2.85-6.17-2.85-10.82s.96-8.24,2.85-10.82c1.9-2.59,4.78-3.89,8.65-3.89s6.67,1.3,8.55,3.89c1.88,2.59,2.82,6.2,2.82,10.82s-.94,8.26-2.82,10.82Z"/>
  <path class="cls-1" d="M732.82,325.38c-1.12-1.33-2.51-2.35-4.17-3.09s-3.59-1.09-5.76-1.09c-2.77,0-5.22.57-7.34,1.72-2.12,1.16-4.04,2.66-5.76,4.51l-.55-4.11c-.26-1-.91-1.49-1.97-1.49h-4.47v39.82h7.46v-29.23c1.48-1.65,3.1-2.93,4.82-3.88,1.73-.94,3.6-1.41,5.62-1.41,2.71,0,4.75.8,6.08,2.41s2.01,3.85,2.01,6.73v25.39h7.45v-25.39c0-2.24-.29-4.29-.86-6.13-.58-1.85-1.43-3.43-2.56-4.75Z"/>
  <path class="cls-1" d="M769.19,342.38c-.96-.78-2.05-1.44-3.28-1.98-1.23-.54-2.49-1.01-3.77-1.43-1.29-.42-2.53-.82-3.77-1.2-1.23-.37-2.33-.8-3.28-1.29s-1.73-1.07-2.31-1.73c-.6-.66-.89-1.49-.89-2.49,0-.79.18-1.51.53-2.17.36-.66.86-1.25,1.5-1.74.64-.5,1.43-.9,2.34-1.18.91-.29,1.94-.44,3.06-.44,1.33,0,2.49.15,3.47.44.98.28,1.81.6,2.52.96.72.36,1.32.68,1.83.96.51.29.98.44,1.4.44.65,0,1.16-.32,1.52-.94l1.65-2.71c-1.48-1.47-3.29-2.6-5.43-3.43-2.13-.83-4.51-1.23-7.13-1.23-2.27,0-4.29.3-6.08.94-1.77.62-3.28,1.48-4.48,2.55-1.22,1.08-2.15,2.31-2.77,3.72-.64,1.41-.94,2.89-.94,4.44,0,1.72.29,3.18.89,4.37.58,1.19,1.36,2.2,2.31,3.03.96.84,2.05,1.52,3.27,2.06,1.23.54,2.49,1.01,3.79,1.44,1.29.42,2.56.8,3.78,1.18,1.23.36,2.33.79,3.28,1.29.96.5,1.73,1.09,2.31,1.8.6.71.89,1.61.89,2.67,0,.84-.15,1.63-.47,2.39-.32.76-.8,1.43-1.45,1.98-.65.57-1.47,1.01-2.45,1.36-.98.35-2.13.51-3.47.51-1.56,0-2.88-.18-3.95-.55-1.05-.36-1.95-.76-2.7-1.19-.75-.43-1.38-.83-1.91-1.2-.51-.36-1.02-.54-1.52-.54-.47,0-.87.1-1.18.29-.32.19-.58.47-.79.84l-1.73,2.82c1.58,1.41,3.5,2.57,5.79,3.49,2.3.91,4.83,1.37,7.6,1.37,2.46,0,4.62-.32,6.51-.98,1.88-.65,3.47-1.55,4.78-2.7,1.29-1.15,2.27-2.51,2.93-4.08.68-1.56,1.01-3.28,1.01-5.14,0-1.59-.3-2.96-.89-4.1-.6-1.15-1.36-2.1-2.31-2.89Z"/>
  <path class="cls-1" d="M806.33,351.1c-1.49,1.65-3.1,2.93-4.84,3.86s-3.6,1.38-5.59,1.38c-2.71,0-4.75-.8-6.08-2.41s-2.01-3.85-2.01-6.73v-25.39h-7.45v25.39c0,2.24.29,4.29.86,6.15.58,1.84,1.43,3.42,2.53,4.73,1.11,1.33,2.49,2.35,4.15,3.09,1.66.73,3.6,1.09,5.79,1.09,2.78,0,5.22-.57,7.32-1.72,2.1-1.15,4.03-2.66,5.74-4.51l.6,4.11c.26,1,.91,1.49,1.97,1.49h4.47v-39.82h-7.46v29.28Z"/>
  <rect class="cls-1" x="824.77" y="303.78" width="7.46" height="57.87"/>
  <path class="cls-1" d="M862.76,354.55c-.14-.11-.33-.15-.57-.15-.21,0-.44.08-.72.26-.28.19-.6.4-.97.64-.36.24-.8.44-1.33.62-.53.18-1.14.28-1.84.28-1.26,0-2.27-.4-3.05-1.19-.78-.8-1.16-1.99-1.16-3.6v-23.5h11.35v-5.41h-11.35v-13.45h-3.77c-.47,0-.84.12-1.14.37s-.48.58-.58,1l-1.69,12.04-6.48.87v2.98c0,.53.14.93.43,1.2.29.26.65.4,1.11.4h4.66v24.02c0,3.35.86,5.91,2.59,7.7,1.73,1.77,4.18,2.66,7.38,2.66,1.83,0,3.6-.3,5.32-.94,1.72-.62,3.2-1.51,4.46-2.66l-2.2-3.57c-.15-.26-.3-.44-.46-.55Z"/>
  <path class="cls-1" d="M896.66,325.3c-1.19-1.32-2.67-2.35-4.42-3.09-1.76-.72-3.75-1.09-6.01-1.09-3.11,0-5.95.53-8.53,1.56-2.59,1.05-4.98,2.62-7.21,4.72l1.34,2.42c.26.37.57.69.91.97.36.28.8.42,1.31.42.64,0,1.26-.22,1.88-.64.64-.42,1.36-.89,2.19-1.38.82-.51,1.8-.98,2.93-1.43,1.15-.43,2.56-.64,4.26-.64,2.51,0,4.42.76,5.7,2.3,1.3,1.52,1.95,3.79,1.95,6.8v2.99c-4.53.1-8.35.53-11.45,1.25-3.1.73-5.61,1.67-7.53,2.81-1.92,1.14-3.31,2.42-4.15,3.86-.86,1.44-1.27,2.95-1.27,4.51,0,1.81.29,3.38.87,4.69.6,1.32,1.38,2.42,2.39,3.31,1.01.9,2.19,1.55,3.56,1.99,1.36.43,2.82.64,4.39.64s2.89-.12,4.12-.39c1.23-.26,2.38-.64,3.47-1.14,1.08-.5,2.12-1.12,3.11-1.87s2.01-1.59,3.02-2.53l.83,3.57c.24.68.54,1.14.94,1.37.39.24.96.36,1.69.36h3.29v-25.43c0-2.24-.3-4.29-.93-6.16-.61-1.85-1.51-3.45-2.7-4.76ZM892.99,351.88c-.79.82-1.58,1.54-2.37,2.19-.78.64-1.61,1.18-2.48,1.62-.89.44-1.83.79-2.84,1.02-1,.24-2.09.35-3.27.35-.89,0-1.73-.11-2.49-.33-.78-.22-1.45-.55-2.02-1.01-.58-.46-1.02-1.05-1.36-1.79-.33-.73-.48-1.62-.48-2.63s.3-2.01.94-2.89c.62-.87,1.62-1.62,2.99-2.26,1.38-.62,3.17-1.14,5.36-1.52,2.2-.39,4.87-.64,8.01-.75v8Z"/>
  <path class="cls-1" d="M947.84,305.51c-.47-.47-1.02-.84-1.66-1.12-.65-.28-1.31-.42-2.02-.42s-1.37.14-1.98.42c-.62.28-1.16.65-1.62,1.12-.46.47-.82,1.02-1.09,1.66-.28.65-.42,1.32-.42,2.02s.14,1.38.42,2.01c.28.62.64,1.18,1.09,1.63.46.46,1,.82,1.62,1.09.61.28,1.27.42,1.98.42s1.37-.14,2.02-.42c.64-.28,1.19-.64,1.66-1.09.47-.46.86-1.01,1.14-1.63.29-.62.44-1.3.44-2.01s-.15-1.37-.44-2.02c-.28-.64-.66-1.19-1.14-1.66Z"/>
  <path class="cls-1" d="M920.06,309.04h-3.77c-.47,0-.84.12-1.14.37s-.48.58-.58,1l-1.69,12.04-6.48.87v2.98c0,.53.14.93.43,1.2.29.26.65.4,1.11.4h4.66v24.02c0,3.35.86,5.91,2.59,7.7,1.73,1.77,4.18,2.66,7.38,2.66,1.83,0,3.6-.3,5.32-.94,1.72-.62,3.2-1.51,4.46-2.66l-2.2-3.57c-.15-.26-.3-.44-.46-.55-.14-.11-.33-.15-.57-.15-.21,0-.44.08-.72.26-.28.19-.6.4-.97.64-.36.24-.8.44-1.33.62-.53.18-1.14.28-1.84.28-1.26,0-2.27-.4-3.05-1.19-.78-.8-1.16-1.99-1.16-3.6v-23.5h20.17v33.75h7.46v-39.16h-27.63v-13.45Z"/>
  <path class="cls-1" d="M989.71,326.73c-1.65-1.77-3.65-3.14-6.01-4.1-2.35-.96-5-1.43-7.92-1.43s-5.58.47-7.95,1.43c-2.37.96-4.39,2.33-6.05,4.1-1.66,1.79-2.93,3.93-3.82,6.46-.89,2.52-1.33,5.36-1.33,8.49s.44,5.98,1.33,8.51c.89,2.55,2.16,4.71,3.82,6.48,1.66,1.79,3.68,3.14,6.05,4.1,2.37.96,5.01,1.44,7.95,1.44s5.56-.48,7.92-1.44c2.35-.96,4.36-2.31,6.01-4.1,1.65-1.77,2.92-3.93,3.81-6.48.89-2.53,1.33-5.37,1.33-8.51s-.44-5.97-1.33-8.49c-.89-2.53-2.16-4.68-3.81-6.46ZM984.34,352.54c-1.88,2.57-4.73,3.85-8.55,3.85s-6.75-1.27-8.65-3.85c-1.9-2.56-2.85-6.17-2.85-10.82s.96-8.24,2.85-10.82c1.9-2.59,4.78-3.89,8.65-3.89s6.67,1.3,8.55,3.89c1.88,2.59,2.82,6.2,2.82,10.82s-.94,8.26-2.82,10.82Z"/>
  <path class="cls-1" d="M1033.45,325.38c-1.12-1.33-2.51-2.35-4.17-3.09s-3.59-1.09-5.76-1.09c-2.77,0-5.22.57-7.34,1.72-2.12,1.16-4.04,2.66-5.76,4.51l-.55-4.11c-.26-1-.91-1.49-1.97-1.49h-4.47v39.82h7.46v-29.23c1.48-1.65,3.1-2.93,4.82-3.88,1.73-.94,3.6-1.41,5.62-1.41,2.71,0,4.75.8,6.08,2.41s2.01,3.85,2.01,6.73v25.39h7.45v-25.39c0-2.24-.29-4.29-.86-6.13-.58-1.85-1.43-3.43-2.56-4.75Z"/>
  <path class="cls-1" d="M1069.8,342.38c-.96-.78-2.05-1.44-3.28-1.98-1.23-.54-2.49-1.01-3.77-1.43-1.29-.42-2.53-.82-3.76-1.2-1.23-.37-2.33-.8-3.28-1.29s-1.73-1.07-2.31-1.73c-.6-.66-.89-1.49-.89-2.49,0-.79.18-1.51.53-2.17.36-.66.86-1.25,1.49-1.74.64-.5,1.43-.9,2.34-1.18.91-.29,1.94-.44,3.06-.44,1.33,0,2.49.15,3.47.44.98.28,1.81.6,2.52.96.72.36,1.32.68,1.83.96.51.29.98.44,1.4.44.65,0,1.16-.32,1.52-.94l1.65-2.71c-1.48-1.47-3.29-2.6-5.43-3.43-2.13-.83-4.51-1.23-7.13-1.23-2.27,0-4.29.3-6.08.94-1.77.62-3.28,1.48-4.48,2.55-1.22,1.08-2.15,2.31-2.77,3.72-.64,1.41-.94,2.89-.94,4.44,0,1.72.29,3.18.89,4.37.58,1.19,1.36,2.2,2.31,3.03.96.84,2.05,1.52,3.27,2.06,1.23.54,2.49,1.01,3.79,1.44,1.29.42,2.56.8,3.78,1.18,1.23.36,2.33.79,3.28,1.29.96.5,1.73,1.09,2.31,1.8.6.71.89,1.61.89,2.67,0,.84-.15,1.63-.47,2.39-.32.76-.8,1.43-1.45,1.98-.65.57-1.47,1.01-2.45,1.36-.98.35-2.13.51-3.47.51-1.56,0-2.88-.18-3.95-.55-1.05-.36-1.95-.76-2.7-1.19-.75-.43-1.38-.83-1.91-1.2-.51-.36-1.02-.54-1.52-.54-.47,0-.87.1-1.18.29-.32.19-.58.47-.79.84l-1.73,2.82c1.58,1.41,3.5,2.57,5.79,3.49,2.3.91,4.83,1.37,7.6,1.37,2.46,0,4.62-.32,6.51-.98,1.88-.65,3.47-1.55,4.78-2.7,1.29-1.15,2.27-2.51,2.93-4.08.68-1.56,1.01-3.28,1.01-5.14,0-1.59-.3-2.96-.89-4.1-.6-1.15-1.36-2.1-2.31-2.89Z"/>
  <polygon class="cls-1" points="373.67 91.75 416.25 91.75 416.25 69.43 373.67 69.43 373.67 37.88 424.8 37.88 424.8 15.64 344.59 15.64 344.59 140.24 373.67 140.24 373.67 91.75"/>
  <path class="cls-1" d="M447.81,126.98c4.62,4.62,10.23,8.21,16.85,10.78,6.61,2.57,14.08,3.85,22.4,3.85s15.71-1.28,22.32-3.85c6.61-2.57,12.23-6.16,16.85-10.78,4.62-4.62,8.17-10.12,10.65-16.5,2.48-6.38,3.72-13.39,3.72-21.03V15.64h-28.9v73.8c0,4.39-.56,8.31-1.67,11.76-1.11,3.45-2.72,6.37-4.83,8.77-2.11,2.4-4.69,4.23-7.74,5.52-3.05,1.28-6.51,1.92-10.39,1.92s-7.34-.64-10.39-1.92c-3.05-1.29-5.63-3.14-7.74-5.56-2.11-2.42-3.72-5.36-4.83-8.81-1.11-3.45-1.67-7.37-1.67-11.76V15.64h-28.9v73.8c0,7.64,1.23,14.65,3.68,21.03,2.45,6.39,5.99,11.89,10.6,16.5Z"/>
  <polygon class="cls-1" points="581.29 140.24 610.2 140.24 610.2 38.56 645.26 38.56 645.26 15.64 546.23 15.64 546.23 38.56 581.29 38.56 581.29 140.24"/>
  <path class="cls-1" d="M665.16,127c4.62,4.62,10.27,8.22,16.88,10.75,6.61,2.58,14.08,3.87,22.42,3.87,4.95,0,9.62-.48,13.98-1.4,2.9-.59,5.7-1.45,8.33-2.47,6.61-2.53,12.2-6.13,16.82-10.75,4.62-4.62,8.17-10.11,10.64-16.5,2.47-6.4,3.76-13.38,3.76-21.07V15.62h-28.92v73.8c0,4.41-.59,8.33-1.67,11.77-1.13,3.44-2.74,6.4-4.84,8.76-2.1,2.42-4.68,4.25-7.74,5.54-3.06,1.29-6.5,1.94-10.37,1.94s-7.36-.65-10.43-1.94c-3.01-1.29-5.59-3.17-7.74-5.59-2.1-2.42-3.71-5.32-4.78-8.76-1.13-3.49-1.72-7.42-1.72-11.77V15.62h-28.87v73.8c0,7.69,1.24,14.67,3.66,21.07,2.47,6.4,6.02,11.88,10.59,16.5Z"/>
  <path class="cls-1" d="M801.05,94.15h7.36c2.26,0,3.98.32,5.16,1.02,1.24.7,2.31,1.83,3.22,3.44l20.7,36.18c2.1,3.6,5.59,5.43,10.43,5.43h26.18l-26.5-43.32c-1.29-2.04-2.74-3.82-4.41-5.21-1.67-1.45-3.49-2.63-5.43-3.6,4.03-1.56,7.63-3.49,10.7-5.91,3.12-2.36,5.75-5.11,7.9-8.17,2.15-3.01,3.76-6.34,4.84-9.94,1.07-3.6,1.61-7.42,1.61-11.45,0-5.32-.91-10.21-2.74-14.73-1.83-4.52-4.73-8.39-8.76-11.72-4.03-3.28-9.19-5.86-15.59-7.74-6.34-1.83-14.03-2.8-23.01-2.8h-40.53v124.6h28.87v-46.07ZM801.03,74.07v-36.78h.02s11.66-.01,11.66-.01c3.72,0,6.94.39,9.69,1.15,0,0,.02,0,.03,0,.23.06.41.17.63.24,2.45.76,4.55,1.8,6.22,3.21,1.3,1.13,2.27,2.47,3.09,3.93,1.43,2.51,2.22,5.46,2.22,8.93,0,2.69-.43,5.27-1.18,7.63-.16.48-.43.89-.63,1.34-.79,1.8-1.83,3.43-3.21,4.89-.77.77-1.63,1.44-2.59,2.01-.05.04-.12.05-.17.09-.95.64-2.04,1.13-3.19,1.6-.31.12-.52.31-.85.42-.12.04-.28.04-.39.07-1.86.64-4.01.99-6.34,1.18-.17.01-.28.07-.45.08h-.57l-8.43,5.75c-.38.29-.96-.1-.96-.57v-5.03h-4.58v-.05h-.02v-.1Z"/>
  <polygon class="cls-1" points="961.5 118.02 910.33 118.02 910.33 88.35 949.51 88.35 949.51 66.95 910.33 66.95 910.33 37.87 961.5 37.87 961.5 15.62 881.3 15.62 881.3 140.22 961.5 140.22 961.5 118.02"/>
  <rect class="cls-1" x="344.59" y="157.17" width="29.07" height="124.59"/>
  <path class="cls-1" d="M480.21,280.73c1.54.69,3.42,1.03,5.64,1.03h15.05v-124.59h-25.48v65.93c0,2,.06,4.12.17,6.37.12,2.25.29,4.58.51,6.97l-59.17-74.83c-.8-.97-1.51-1.74-2.14-2.31-.63-.57-1.28-1.01-1.97-1.33-.68-.31-1.45-.53-2.31-.64-.85-.11-1.91-.17-3.17-.17h-15.22v124.59h25.48v-66.79c0-1.82-.06-3.78-.17-5.86-.11-2.08-.26-4.2-.43-6.37l58.75,74.23c1.42,1.82,2.91,3.08,4.45,3.76Z"/>
  <path class="cls-1" d="M586.47,219.17c-2.59-2.57-5.56-4.68-8.89-6.33-3.34-1.65-6.74-3.09-10.22-4.32-3.48-1.22-6.89-2.34-10.22-3.33-3.33-1-6.3-2.1-8.89-3.29-2.59-1.2-4.69-2.62-6.28-4.28-1.6-1.65-2.4-3.74-2.4-6.24,0-3.93,1.33-7.06,3.97-9.36,2.65-2.31,6.68-3.46,12.1-3.46,3.13,0,5.93.41,8.38,1.24,2.45.82,4.63,1.75,6.54,2.78,1.91,1.03,3.62,1.96,5.13,2.78,1.51.82,2.92,1.24,4.23,1.24,1.48,0,2.69-.35,3.63-1.03.94-.69,1.84-1.71,2.69-3.08l7.18-13.43c-2.22-2.05-4.74-3.89-7.57-5.51-2.82-1.63-5.86-3.02-9.11-4.19-3.25-1.17-6.68-2.05-10.31-2.65-3.62-.6-7.34-.9-11.16-.9-6.84,0-12.92,1.04-18.21,3.12-5.31,2.08-9.78,4.86-13.43,8.34-3.65,3.48-6.41,7.44-8.29,11.89-1.88,4.45-2.82,9.01-2.82,13.68,0,5.81.8,10.71,2.4,14.67,1.59,3.96,3.69,7.27,6.28,9.92,2.59,2.65,5.54,4.79,8.85,6.41,3.3,1.62,6.7,2.99,10.18,4.1,3.48,1.11,6.87,2.13,10.18,3.04,3.3.91,6.25,1.97,8.85,3.16,2.59,1.2,4.69,2.71,6.29,4.53,1.59,1.82,2.4,4.19,2.4,7.1,0,5.01-1.46,8.68-4.36,10.99-2.91,2.31-6.99,3.46-12.23,3.46-3.88,0-7.24-.54-10.09-1.63-2.85-1.08-5.37-2.28-7.57-3.59-2.19-1.31-4.16-2.51-5.9-3.59-1.74-1.08-3.46-1.62-5.17-1.62-1.31,0-2.54.31-3.68.94-1.14.63-2.02,1.45-2.65,2.48l-8.55,13.51c2.45,2.45,5.33,4.67,8.63,6.67,3.31,1.99,6.84,3.72,10.61,5.18,3.76,1.45,7.65,2.58,11.68,3.38,4.02.8,7.96,1.2,11.84,1.2,7.07,0,13.39-1.07,18.94-3.21,5.56-2.14,10.23-5.07,14.03-8.81,3.79-3.73,6.68-8.11,8.68-13.12,2-5.02,2.99-10.4,2.99-16.16,0-5.19-.8-9.62-2.39-13.3-1.6-3.68-3.69-6.8-6.29-9.36Z"/>
  <rect class="cls-1" x="607.46" y="157.17" width="29.07" height="124.59"/>
  <path class="cls-1" d="M759.16,269.79v-52.59h-44.29v15.91c0,1.48.51,2.71,1.54,3.68,1.02.97,2.45,1.45,4.28,1.45h12.31v18.9c-2.74,1.14-5.64,2.05-8.72,2.74-3.08.68-6.61,1.03-10.6,1.03-5.25,0-10.08-.93-14.5-2.78-4.42-1.85-8.24-4.55-11.45-8.08-3.22-3.54-5.75-7.87-7.57-13-1.83-5.13-2.74-11-2.74-17.61,0-5.99.83-11.42,2.48-16.29,1.65-4.87,4-9.05,7.06-12.53,3.05-3.48,6.74-6.17,11.07-8.08,4.34-1.91,9.21-2.86,14.62-2.86,2.91,0,5.53.14,7.87.43,2.34.29,4.56.74,6.67,1.37,2.11.63,4.18,1.44,6.2,2.44,2.02,1,4.18,2.18,6.46,3.55,1.82,1.14,3.59,1.71,5.3,1.71,1.31,0,2.52-.34,3.63-1.02,1.11-.69,2.07-1.63,2.86-2.82l8.38-12.74c-2.51-2.4-5.36-4.62-8.55-6.67-3.19-2.05-6.71-3.82-10.56-5.3-3.85-1.48-8.05-2.65-12.61-3.51-4.56-.86-9.44-1.29-14.62-1.29-10.04,0-19.11,1.57-27.24,4.7-8.12,3.14-15.05,7.52-20.78,13.17-5.73,5.64-10.13,12.36-13.21,20.14-3.08,7.78-4.62,16.32-4.62,25.61s1.61,17.58,4.83,25.36c3.22,7.78,7.67,14.51,13.34,20.18,5.67,5.67,12.39,10.12,20.14,13.34,7.75,3.22,16.19,4.83,25.31,4.83,5.07,0,9.82-.26,14.24-.77,4.42-.51,8.58-1.31,12.49-2.4,3.9-1.08,7.58-2.46,11.03-4.14,3.45-1.68,6.77-3.69,9.96-6.03Z"/>
  <polygon class="cls-1" points="801.23 229.08 851.86 229.08 851.86 281.76 880.94 281.76 880.94 157.17 851.86 157.17 851.86 209.25 801.23 209.25 801.23 157.17 772.16 157.17 772.16 281.76 801.23 281.76 801.23 229.08"/>
  <polygon class="cls-1" points="987.32 157.17 888.29 157.17 888.29 180.08 923.35 180.08 923.35 281.76 952.26 281.76 952.26 180.08 987.32 180.08 987.32 157.17"/>
  <path class="cls-1" d="M999.07,217.41c2.59,2.65,5.54,4.79,8.85,6.41,3.3,1.62,6.7,2.99,10.17,4.1,3.48,1.11,6.87,2.13,10.18,3.04,3.3.91,6.25,1.97,8.85,3.16,2.59,1.2,4.69,2.71,6.29,4.53,1.59,1.82,2.4,4.19,2.4,7.1,0,5.01-1.46,8.68-4.36,10.99-2.91,2.31-6.98,3.46-12.23,3.46-3.88,0-7.24-.54-10.09-1.63-2.85-1.08-5.37-2.28-7.57-3.59-2.19-1.31-4.16-2.51-5.9-3.59-1.74-1.08-3.46-1.62-5.17-1.62-1.31,0-2.54.31-3.68.94-1.14.63-2.02,1.45-2.65,2.48l-8.55,13.51c2.45,2.45,5.33,4.67,8.64,6.67,3.31,1.99,6.84,3.72,10.61,5.18,3.76,1.45,7.65,2.58,11.67,3.38,4.02.8,7.96,1.2,11.84,1.2,7.07,0,13.39-1.07,18.94-3.21,5.56-2.14,10.23-5.07,14.03-8.81,3.79-3.73,6.68-8.11,8.68-13.12,2-5.02,2.99-10.4,2.99-16.16,0-5.19-.8-9.62-2.39-13.3-1.6-3.68-3.69-6.8-6.29-9.36-2.59-2.57-5.56-4.68-8.89-6.33-3.34-1.65-6.74-3.09-10.22-4.32-3.48-1.22-6.89-2.34-10.22-3.33-3.33-1-6.3-2.1-8.89-3.29-2.59-1.2-4.69-2.62-6.28-4.28-1.6-1.65-2.4-3.74-2.4-6.24,0-3.93,1.33-7.06,3.97-9.36,2.65-2.31,6.68-3.46,12.1-3.46,3.13,0,5.93.41,8.38,1.24,2.45.82,4.63,1.75,6.54,2.78,1.91,1.03,3.62,1.96,5.13,2.78,1.51.82,2.92,1.24,4.23,1.24,1.48,0,2.69-.35,3.63-1.03.94-.69,1.84-1.71,2.69-3.08l7.18-13.43c-2.22-2.05-4.74-3.89-7.57-5.51-2.82-1.63-5.86-3.02-9.11-4.19-3.25-1.17-6.68-2.05-10.31-2.65-3.62-.6-7.34-.9-11.16-.9-6.84,0-12.92,1.04-18.21,3.12-5.3,2.08-9.78,4.86-13.43,8.34-3.65,3.48-6.41,7.44-8.29,11.89-1.88,4.45-2.82,9.01-2.82,13.68,0,5.81.8,10.71,2.4,14.67,1.59,3.96,3.69,7.27,6.28,9.92Z"/>
</svg>