<?xml version="1.0" encoding="UTF-8"?>
<svg id="Layer_1" data-name="Layer 1" xmlns="http://www.w3.org/2000/svg" viewBox="0 0 1041.25 334.09">
  <defs>
    <style>
      .cls-1 {
        fill: #fff;
      }
    </style>
  </defs>
  <g>
    <polygon class="cls-1" points="177.78 1.83 177.78 41.83 131.7 87.9 45.59 174.01 5.62 174.01 5.62 92.25 91.7 6.18 96.01 1.83 177.78 1.83"/>
    <polygon class="cls-1" points="167.32 174.01 81.24 260.09 5.62 260.09 5.62 213.98 45.59 174.01 167.32 174.01"/>
    <polygon class="cls-1" points="263.85 87.9 263.85 260.09 177.78 260.09 177.78 163.56 253.46 87.9 263.85 87.9"/>
    <polygon class="cls-1" points="263.85 1.83 263.85 77.51 253.46 87.9 177.78 87.9 177.78 41.83 217.77 1.83 263.85 1.83"/>
  </g>
  <g>
    <path class="cls-1" d="M643.35,301.95c-.56-.62-1.24-1.1-2.04-1.45-.81-.35-1.72-.53-2.76-.53-2.14,0-3.83.62-5.06,1.86-1.23,1.24-1.99,2.97-2.3,5.16h13.86c0-1.03-.15-1.98-.44-2.83-.29-.86-.72-1.6-1.27-2.21Z"/>
    <path class="cls-1" d="M796.7,55.27c-.92.62-1.98,1.1-3.1,1.55,1.11-.45,2.16-.95,3.1-1.55Z"/>
    <path class="cls-1" d="M792.43,23.95c-2.67-.74-5.8-1.12-9.41-1.12h-11.32s11.32.01,11.32.01c3.61,0,6.74.37,9.41,1.11Z"/>
    <path class="cls-1" d="M803.1,47.19c-.15.47-.41.86-.61,1.3.2-.44.46-.83.62-1.3.73-2.3,1.15-4.8,1.15-7.41,0-3.37-.77-6.23-2.16-8.67,1.36,2.44,2.12,5.29,2.12,8.64,0,2.6-.37,5.11-1.12,7.44Z"/>
    <rect class="cls-1" x="771.7" y="58.62" width="4.44" height=".04"/>
    <path class="cls-1" d="M792.4,57.3c-1.83.56-3.89.95-6.15,1.15,2.26-.19,4.35-.53,6.15-1.15Z"/>
    <path class="cls-1" d="M759.8,300.2c-2.54,0-4.43.85-5.67,2.55-1.24,1.7-1.87,4.07-1.87,7.1s.63,5.42,1.87,7.1c1.24,1.69,3.13,2.52,5.67,2.52s4.37-.84,5.61-2.52c1.23-1.68,1.85-4.05,1.85-7.1s-.62-5.4-1.85-7.1-3.1-2.55-5.61-2.55Z"/>
    <path class="cls-1" d="M533.85,324.74c0,.57.15,1.1.44,1.59.29.48.74.91,1.33,1.25.59.35,1.34.64,2.26.84.92.2,2.01.31,3.26.31s2.33-.12,3.29-.34c.95-.23,1.76-.54,2.41-.93.65-.4,1.15-.86,1.5-1.41.34-.54.51-1.13.51-1.79,0-.62-.17-1.12-.53-1.49-.35-.38-.83-.68-1.42-.9-.6-.23-1.3-.38-2.09-.46-.79-.09-1.62-.15-2.5-.21-.87-.05-1.77-.1-2.69-.15-.92-.05-1.8-.14-2.63-.25-.93.44-1.69.99-2.27,1.64s-.87,1.42-.87,2.29Z"/>
    <path class="cls-1" d="M456.81,312.75c-.9.42-1.55.91-1.96,1.48-.42.58-.62,1.21-.62,1.9s.1,1.24.32,1.72c.22.48.51.87.89,1.17.37.3.82.52,1.33.66.5.15,1.05.22,1.63.22.77,0,1.49-.07,2.14-.23.66-.15,1.28-.38,1.86-.67.57-.29,1.12-.64,1.62-1.06.52-.43,1.03-.9,1.55-1.43v-5.25c-2.06.07-3.81.24-5.26.49-1.43.25-2.6.59-3.51,1Z"/>
    <path class="cls-1" d="M511.24,312.75c-.9.42-1.55.91-1.96,1.48-.42.58-.62,1.21-.62,1.9s.1,1.24.32,1.72c.22.48.51.87.89,1.17.37.3.82.52,1.33.66.5.15,1.05.22,1.63.22.77,0,1.49-.07,2.14-.23.66-.15,1.28-.38,1.86-.67.57-.29,1.12-.64,1.62-1.06.52-.43,1.03-.9,1.55-1.43v-5.25c-2.06.07-3.81.24-5.26.49-1.43.25-2.6.59-3.51,1Z"/>
    <path class="cls-1" d="M573.69,301.95c-.56-.62-1.24-1.1-2.04-1.45-.81-.35-1.72-.53-2.76-.53-2.14,0-3.83.62-5.06,1.86-1.23,1.24-1.99,2.97-2.3,5.16h13.86c0-1.03-.15-1.98-.44-2.83-.29-.86-.72-1.6-1.27-2.21Z"/>
    <path class="cls-1" d="M540.77,299.84c-1.8,0-3.17.45-4.1,1.37s-1.4,2.15-1.4,3.69c0,.74.12,1.42.35,2.03.25.62.6,1.15,1.06,1.61.46.45,1.03.81,1.72,1.05.69.25,1.48.37,2.37.37s1.71-.12,2.4-.37c.68-.25,1.26-.59,1.72-1.04.46-.44.81-.97,1.03-1.59.24-.62.35-1.31.35-2.06,0-1.54-.47-2.78-1.41-3.69s-2.3-1.37-4.1-1.37Z"/>
    <path class="cls-1" d="M355.47,300.2c-2.54,0-4.43.85-5.67,2.55-1.24,1.7-1.87,4.07-1.87,7.1s.62,5.42,1.87,7.1c1.24,1.69,3.13,2.52,5.67,2.52s4.37-.84,5.6-2.52c1.23-1.68,1.85-4.05,1.85-7.1s-.62-5.4-1.85-7.1-3.1-2.55-5.6-2.55Z"/>
    <path class="cls-1" d="M792.45,23.95c.22.06.39.17.61.23-.21-.07-.39-.17-.61-.23Z"/>
    <path class="cls-1" d="M956.91,300.2c-2.54,0-4.43.85-5.67,2.55-1.24,1.7-1.87,4.07-1.87,7.1s.63,5.42,1.87,7.1c1.24,1.69,3.13,2.52,5.67,2.52s4.37-.84,5.61-2.52c1.23-1.68,1.85-4.05,1.85-7.1s-.62-5.4-1.85-7.1c-1.23-1.7-3.1-2.55-5.61-2.55Z"/>
    <path class="cls-1" d="M893.86,312.75c-.9.42-1.55.91-1.96,1.48-.42.58-.62,1.21-.62,1.9s.1,1.24.32,1.72c.22.48.51.87.89,1.17.37.3.82.52,1.33.66.5.15,1.05.22,1.63.22.77,0,1.49-.07,2.14-.23.66-.15,1.28-.38,1.86-.67.57-.29,1.12-.64,1.62-1.06.52-.43,1.03-.9,1.55-1.43v-5.25c-2.06.07-3.81.24-5.26.49-1.43.25-2.6.59-3.51,1Z"/>
    <path class="cls-1" d="M337.95,285.43c-1.39,0-2.65.21-3.77.64-1.12.42-2.08,1.03-2.87,1.82s-1.4,1.78-1.82,2.95c-.43,1.16-.64,2.49-.64,3.98v2.41h-4.09v2.03c0,.36.12.64.36.84.24.2.56.34.95.4l2.78.34v22.07h4.89v-22.13h7.26v-3.55h-7.41v-2.26c0-1.08.12-2,.36-2.74.24-.74.59-1.34,1.04-1.79s1-.77,1.63-.96c.64-.2,1.35-.3,2.14-.3h.93c.27,0,.51-.03.72-.07.21-.05.37-.14.49-.25.12-.12.19-.27.2-.48l.1-2.47c-.5-.15-1.02-.27-1.57-.36-.55-.08-1.1-.13-1.67-.13Z"/>
    <path class="cls-1" d="M364.6,300.01c-1.08-1.16-2.39-2.06-3.93-2.69-1.54-.63-3.28-.93-5.2-.93s-3.66.31-5.21.93c-1.55.63-2.87,1.52-3.96,2.69-1.09,1.17-1.93,2.58-2.51,4.24-.59,1.65-.88,3.51-.88,5.56s.29,3.92.88,5.58c.58,1.67,1.42,3.09,2.51,4.25,1.09,1.17,2.41,2.06,3.96,2.69,1.55.63,3.29.94,5.21.94s3.65-.32,5.2-.94c1.54-.63,2.85-1.52,3.93-2.69,1.08-1.16,1.91-2.58,2.5-4.25.58-1.66.88-3.52.88-5.58s-.29-3.91-.88-5.56c-.59-1.66-1.42-3.07-2.5-4.24ZM361.07,316.94c-1.23,1.69-3.1,2.52-5.6,2.52s-4.43-.84-5.67-2.52c-1.24-1.68-1.87-4.05-1.87-7.1s.62-5.4,1.87-7.1c1.24-1.7,3.13-2.55,5.67-2.55s4.37.85,5.6,2.55,1.85,4.07,1.85,7.1-.62,5.42-1.85,7.1Z"/>
    <path class="cls-1" d="M385.57,296.34c-1.69,0-3.12.5-4.32,1.49-1.2,1-2.21,2.36-3.04,4.09l-.31-3.8c-.06-.5-.2-.84-.4-1.03-.19-.19-.56-.28-1.1-.28h-2.8v26.11h4.88v-16.39c.33-.85.69-1.62,1.07-2.29.38-.66.82-1.23,1.33-1.7.49-.46,1.05-.82,1.69-1.05.62-.24,1.34-.36,2.14-.36.56,0,1.09.05,1.56.15.47.11.82.15,1.07.15.44,0,.71-.23.82-.69l.33-3.66c-.36-.25-.82-.44-1.33-.56-.49-.12-1.03-.18-1.6-.18Z"/>
    <path class="cls-1" d="M439.08,286.13c-.26.08-.51.34-.74.77l-12.24,22.27c-.24.45-.45.91-.65,1.38s-.39.95-.58,1.45c-.37-.99-.78-1.92-1.21-2.78l-12.48-22.33c-.22-.43-.46-.69-.74-.77-.26-.09-.63-.13-1.09-.13h-3.94v36.91h4.66v-26.55c0-.4-.02-.82-.05-1.26-.04-.44-.07-.9-.11-1.36l12.66,22.79c.41.81,1.05,1.21,1.92,1.21h.75c.41,0,.78-.1,1.12-.31.34-.2.6-.5.78-.9l12.41-22.69c-.04.44-.06.88-.08,1.32-.02.43-.03.83-.03,1.21v26.55h4.66v-36.91h-3.93c-.46,0-.84.04-1.1.13Z"/>
    <path class="cls-1" d="M467.98,299.08c-.78-.86-1.75-1.54-2.9-2.02-1.15-.47-2.46-.72-3.94-.72-2.04,0-3.9.34-5.59,1.03-1.7.69-3.27,1.72-4.73,3.1l.88,1.59c.17.25.37.45.6.64.24.18.53.27.86.27.42,0,.83-.15,1.23-.42.42-.27.89-.58,1.43-.91.54-.34,1.18-.64,1.92-.93.75-.28,1.68-.42,2.8-.42,1.64,0,2.9.5,3.74,1.51.85,1,1.28,2.49,1.28,4.46v1.96c-2.97.06-5.47.34-7.51.82-2.03.48-3.68,1.1-4.94,1.84-1.26.74-2.17,1.59-2.72,2.53-.56.94-.84,1.93-.84,2.96,0,1.19.19,2.21.57,3.08.39.86.91,1.59,1.57,2.17.66.59,1.43,1.02,2.33,1.31.89.28,1.85.42,2.88.42s1.9-.08,2.7-.25,1.56-.42,2.28-.74c.71-.33,1.39-.74,2.04-1.23s1.32-1.04,1.98-1.66l.54,2.34c.15.44.35.74.62.9.25.15.63.24,1.11.24h2.16v-16.67c0-1.47-.2-2.81-.61-4.04-.4-1.22-.99-2.26-1.77-3.12ZM465.58,316.51c-.52.54-1.03,1.01-1.55,1.43-.51.42-1.05.77-1.62,1.06-.58.29-1.2.52-1.86.67-.65.15-1.37.23-2.14.23-.58,0-1.13-.07-1.63-.22-.51-.15-.95-.36-1.33-.66-.38-.3-.67-.69-.89-1.17-.22-.48-.32-1.06-.32-1.72s.2-1.32.62-1.9c.41-.57,1.06-1.06,1.96-1.48.91-.41,2.08-.74,3.51-1,1.44-.25,3.19-.42,5.26-.49v5.25Z"/>
    <path class="cls-1" d="M496.86,299.13c-.74-.87-1.64-1.54-2.73-2.02s-2.35-.72-3.78-.72c-1.82,0-3.42.37-4.81,1.13-1.39.76-2.65,1.74-3.78,2.96l-.36-2.7c-.17-.65-.6-.98-1.29-.98h-2.93v26.11h4.89v-19.17c.97-1.08,2.03-1.92,3.16-2.54,1.13-.62,2.36-.93,3.68-.93,1.78,0,3.11.53,3.98,1.58.87,1.05,1.32,2.52,1.32,4.41v16.65h4.88v-16.65c0-1.47-.19-2.81-.56-4.02-.38-1.22-.93-2.25-1.68-3.11Z"/>
    <path class="cls-1" d="M522.41,299.08c-.78-.86-1.75-1.54-2.9-2.02-1.15-.47-2.46-.72-3.94-.72-2.04,0-3.9.34-5.59,1.03-1.7.69-3.27,1.72-4.73,3.1l.88,1.59c.17.25.37.45.6.64.24.18.53.27.86.27.42,0,.83-.15,1.23-.42.42-.27.89-.58,1.43-.91.54-.34,1.18-.64,1.92-.93.75-.28,1.68-.42,2.8-.42,1.64,0,2.9.5,3.74,1.51.85,1,1.28,2.49,1.28,4.46v1.96c-2.97.06-5.47.34-7.51.82-2.03.48-3.68,1.1-4.94,1.84-1.26.74-2.17,1.59-2.72,2.53-.56.94-.84,1.93-.84,2.96,0,1.19.19,2.21.57,3.08.39.86.91,1.59,1.57,2.17.66.59,1.43,1.02,2.33,1.31.89.28,1.85.42,2.88.42s1.9-.08,2.7-.25,1.56-.42,2.28-.74c.71-.33,1.39-.74,2.04-1.23s1.32-1.04,1.98-1.66l.54,2.34c.15.44.35.74.62.9.25.15.63.24,1.11.24h2.16v-16.67c0-1.47-.2-2.81-.61-4.04-.4-1.22-.99-2.26-1.77-3.12ZM520.01,316.51c-.52.54-1.03,1.01-1.55,1.43-.51.42-1.05.77-1.62,1.06-.58.29-1.2.52-1.86.67-.65.15-1.37.23-2.14.23-.58,0-1.13-.07-1.63-.22-.51-.15-.95-.36-1.33-.66-.38-.3-.67-.69-.89-1.17-.22-.48-.32-1.06-.32-1.72s.2-1.32.62-1.9c.41-.57,1.06-1.06,1.96-1.48.91-.41,2.08-.74,3.51-1,1.44-.25,3.19-.42,5.26-.49v5.25Z"/>
    <path class="cls-1" d="M543.92,296.74c-.96-.25-2.01-.37-3.15-.37-1.45,0-2.8.2-4.01.59-1.22.4-2.27.96-3.15,1.7-.89.74-1.58,1.62-2.07,2.65-.5,1.03-.75,2.19-.75,3.48,0,1.59.37,2.99,1.11,4.18.74,1.2,1.75,2.15,3.04,2.87-.55.28-1.03.6-1.45.95-.43.36-.77.74-1.06,1.14-.28.41-.49.81-.63,1.22-.14.4-.21.79-.21,1.17,0,.97.23,1.76.67,2.35s1.05,1.06,1.82,1.4c-1.39.5-2.48,1.19-3.28,2.08-.8.88-1.2,1.96-1.2,3.25,0,.91.24,1.78.71,2.61.47.83,1.18,1.56,2.13,2.2.95.64,2.14,1.14,3.58,1.52,1.43.38,3.11.57,5.03.57s3.65-.25,5.17-.74c1.52-.5,2.81-1.16,3.88-1.97,1.05-.82,1.86-1.75,2.41-2.8.55-1.05.84-2.15.84-3.29,0-1.22-.25-2.2-.75-2.96-.51-.75-1.17-1.34-2-1.79-.83-.44-1.76-.74-2.8-.93-1.04-.19-2.11-.32-3.21-.4-1.1-.07-2.17-.14-3.22-.16-1.04-.04-1.98-.13-2.8-.26-.82-.14-1.49-.35-1.99-.65-.51-.3-.76-.75-.76-1.35,0-.79.54-1.51,1.62-2.16,1.03.25,2.14.39,3.34.39,1.42,0,2.74-.2,3.95-.6,1.21-.39,2.25-.95,3.13-1.7.87-.74,1.55-1.62,2.04-2.65.49-1.03.74-2.19.74-3.47s-.27-2.51-.8-3.6l2.86-.41c.75-.15,1.13-.54,1.13-1.16v-1.8h-7.2c-.83-.46-1.72-.83-2.7-1.07ZM536.99,320.81c.84.12,1.72.2,2.63.25.92.05,1.82.1,2.69.15.88.05,1.71.12,2.5.21.79.08,1.49.24,2.09.46.6.22,1.07.52,1.42.9.35.37.53.87.53,1.49,0,.65-.17,1.25-.51,1.79-.34.54-.84,1.01-1.5,1.41-.65.39-1.46.7-2.41.93-.96.22-2.06.34-3.29.34s-2.34-.11-3.26-.31c-.92-.21-1.67-.49-2.26-.84-.59-.34-1.03-.77-1.33-1.25-.29-.49-.44-1.02-.44-1.59,0-.87.29-1.63.87-2.29s1.33-1.2,2.27-1.64ZM545.92,306.97c-.23.62-.57,1.14-1.03,1.59-.46.45-1.04.8-1.72,1.04-.69.25-1.49.37-2.4.37s-1.68-.12-2.37-.37c-.68-.25-1.25-.6-1.72-1.05-.46-.45-.82-.99-1.06-1.61-.24-.62-.35-1.3-.35-2.03,0-1.54.46-2.78,1.4-3.69s2.31-1.37,4.1-1.37,3.17.45,4.1,1.37,1.41,2.15,1.41,3.69c0,.75-.12,1.44-.35,2.06Z"/>
    <path class="cls-1" d="M576.65,299.45c-.97-1-2.13-1.75-3.47-2.28-1.34-.52-2.8-.78-4.37-.78-1.91,0-3.61.34-5.14,1-1.52.67-2.8,1.59-3.86,2.74-1.05,1.16-1.86,2.52-2.43,4.09-.56,1.57-.84,3.26-.84,5.08,0,2.26.31,4.27.93,6,.63,1.74,1.5,3.2,2.61,4.37,1.12,1.18,2.44,2.07,3.98,2.68s3.2.92,5,.92c.94,0,1.9-.08,2.87-.24s1.91-.4,2.82-.74c.91-.33,1.75-.75,2.54-1.25.79-.51,1.49-1.13,2.09-1.84l-1.39-1.78c-.19-.31-.49-.46-.91-.46-.31,0-.66.13-1.08.39-.41.25-.91.54-1.5.84-.6.31-1.3.59-2.11.85-.82.25-1.79.38-2.92.38-1.2,0-2.29-.19-3.27-.57-.97-.39-1.81-.97-2.51-1.75-.69-.78-1.24-1.76-1.64-2.95-.41-1.18-.64-2.57-.68-4.17h17.24c.44,0,.74-.13.91-.38.16-.26.25-.76.25-1.52,0-1.87-.27-3.52-.82-4.97-.55-1.45-1.32-2.67-2.3-3.67ZM561.53,306.99c.31-2.2,1.07-3.92,2.3-5.16,1.23-1.24,2.91-1.86,5.06-1.86,1.03,0,1.95.17,2.76.53.8.35,1.48.84,2.04,1.45.55.62.98,1.35,1.27,2.21.29.85.44,1.8.44,2.83h-13.86Z"/>
    <path class="cls-1" d="M612.11,296.39c-.85,0-1.7.1-2.53.31-.84.2-1.62.52-2.35.95-.74.43-1.41.97-2.01,1.64-.61.67-1.09,1.47-1.47,2.4-.48-1.63-1.26-2.92-2.34-3.88s-2.5-1.42-4.25-1.42c-1.57,0-2.95.36-4.14,1.11-1.18.74-2.25,1.68-3.21,2.82l-.34-2.54c-.17-.65-.6-.98-1.29-.98h-2.93v26.11h4.89v-19.4c.77-1.02,1.63-1.81,2.59-2.38.94-.58,1.96-.86,3.04-.86,1.58,0,2.78.49,3.59,1.48.82.98,1.22,2.49,1.22,4.51v16.65h4.89v-16.65c0-.98.15-1.84.44-2.6s.69-1.38,1.19-1.88c.49-.5,1.07-.87,1.73-1.13.66-.25,1.36-.38,2.1-.38,1.64,0,2.9.5,3.77,1.52.87,1.01,1.3,2.51,1.3,4.47v16.65h4.89v-16.65c0-3.17-.76-5.61-2.29-7.32-1.53-1.71-3.69-2.56-6.49-2.56Z"/>
    <path class="cls-1" d="M646.32,299.45c-.97-1-2.13-1.75-3.47-2.28-1.34-.52-2.8-.78-4.37-.78-1.91,0-3.61.34-5.14,1-1.52.67-2.8,1.59-3.86,2.74-1.05,1.16-1.86,2.52-2.43,4.09-.56,1.57-.84,3.26-.84,5.08,0,2.26.31,4.27.93,6,.63,1.74,1.5,3.2,2.61,4.37,1.12,1.18,2.44,2.07,3.98,2.68,1.53.61,3.2.92,5,.92.94,0,1.9-.08,2.87-.24s1.91-.4,2.82-.74c.91-.33,1.75-.75,2.54-1.25.79-.51,1.49-1.13,2.09-1.84l-1.39-1.78c-.19-.31-.49-.46-.91-.46-.31,0-.66.13-1.08.39-.41.25-.91.54-1.5.84-.6.31-1.3.59-2.11.85-.82.25-1.79.38-2.92.38-1.2,0-2.29-.19-3.27-.57-.97-.39-1.81-.97-2.51-1.75-.69-.78-1.24-1.76-1.64-2.95-.41-1.18-.64-2.57-.68-4.17h17.24c.44,0,.74-.13.91-.38.16-.26.25-.76.25-1.52,0-1.87-.27-3.52-.82-4.97-.55-1.45-1.32-2.67-2.3-3.67ZM631.2,306.99c.31-2.2,1.07-3.92,2.3-5.16,1.23-1.24,2.91-1.86,5.06-1.86,1.03,0,1.95.17,2.76.53.8.35,1.48.84,2.04,1.45.55.62.98,1.35,1.27,2.21.29.85.44,1.8.44,2.83h-13.86Z"/>
    <path class="cls-1" d="M674.59,299.13c-.74-.87-1.64-1.54-2.73-2.02-1.09-.48-2.35-.72-3.78-.72-1.82,0-3.42.37-4.81,1.13-1.39.76-2.65,1.74-3.78,2.96l-.36-2.7c-.17-.65-.6-.98-1.29-.98h-2.93v26.11h4.89v-19.17c.97-1.08,2.03-1.92,3.16-2.54,1.13-.62,2.36-.93,3.68-.93,1.78,0,3.11.53,3.98,1.58.87,1.05,1.32,2.52,1.32,4.41v16.65h4.88v-16.65c0-1.47-.19-2.81-.56-4.02-.38-1.22-.93-2.25-1.68-3.11Z"/>
    <path class="cls-1" d="M696.12,318.26c-.09-.07-.22-.1-.37-.1-.14,0-.29.05-.47.17-.18.13-.39.26-.64.42-.24.15-.53.29-.87.41s-.74.18-1.21.18c-.83,0-1.49-.26-2-.78-.51-.53-.76-1.31-.76-2.36v-15.41h7.44v-3.55h-7.44v-8.82h-2.47c-.31,0-.55.08-.74.25s-.32.38-.38.65l-1.11,7.9-4.25.57v1.95c0,.34.09.61.28.79.19.17.43.26.73.26h3.06v15.75c0,2.2.56,3.88,1.7,5.05,1.13,1.16,2.74,1.74,4.84,1.74,1.2,0,2.36-.2,3.49-.62,1.13-.41,2.1-.99,2.92-1.74l-1.44-2.34c-.1-.17-.2-.29-.3-.36Z"/>
    <path class="cls-1" d="M741.79,315.09c-.17,0-.33.05-.47.12-.15.08-.29.17-.43.3-.64.56-1.27,1.05-1.91,1.46-.64.42-1.32.74-2.04,1.01-.74.25-1.52.44-2.38.58-.86.13-1.83.19-2.91.19-1.74,0-3.39-.33-4.91-.96-1.52-.64-2.85-1.58-3.98-2.8s-2.01-2.71-2.65-4.49c-.64-1.77-.96-3.79-.96-6.05s.31-4.23.93-6c.62-1.76,1.48-3.26,2.6-4.47s2.45-2.15,4-2.8c1.55-.64,3.25-.97,5.11-.97,1.55,0,2.87.16,3.93.49,1.06.32,1.95.69,2.67,1.09.71.4,1.28.77,1.72,1.09.44.33.83.49,1.15.49.29,0,.52-.05.68-.16s.3-.25.42-.43l1.75-2.47c-1.51-1.42-3.28-2.56-5.31-3.42-2.03-.85-4.37-1.29-6.99-1.29s-5.12.46-7.34,1.39c-2.22.93-4.13,2.22-5.73,3.88-1.59,1.65-2.82,3.64-3.7,5.95-.87,2.31-1.31,4.86-1.31,7.64s.42,5.33,1.24,7.64c.84,2.31,2.01,4.3,3.55,5.96,1.53,1.67,3.39,2.96,5.56,3.88,2.17.93,4.59,1.39,7.26,1.39,3.04,0,5.65-.49,7.81-1.46,2.17-.98,4-2.35,5.52-4.12l-2.11-2.31c-.22-.22-.48-.34-.77-.34Z"/>
    <path class="cls-1" d="M768.93,300.01c-1.08-1.16-2.4-2.06-3.94-2.69-1.54-.63-3.28-.93-5.19-.93s-3.66.31-5.21.93c-1.55.63-2.88,1.52-3.97,2.69-1.09,1.17-1.92,2.58-2.51,4.24-.58,1.65-.87,3.51-.87,5.56s.29,3.92.87,5.58c.58,1.67,1.42,3.09,2.51,4.25,1.09,1.17,2.41,2.06,3.97,2.69,1.55.63,3.29.94,5.21.94s3.65-.32,5.19-.94c1.54-.63,2.86-1.52,3.94-2.69,1.08-1.16,1.92-2.58,2.5-4.25.58-1.66.87-3.52.87-5.58s-.29-3.91-.87-5.56c-.58-1.66-1.42-3.07-2.5-4.24ZM765.41,316.94c-1.23,1.69-3.1,2.52-5.61,2.52s-4.43-.84-5.67-2.52c-1.24-1.68-1.87-4.05-1.87-7.1s.63-5.4,1.87-7.1c1.24-1.7,3.13-2.55,5.67-2.55s4.37.85,5.61,2.55,1.85,4.07,1.85,7.1-.62,5.42-1.85,7.1Z"/>
    <path class="cls-1" d="M797.61,299.13c-.74-.87-1.64-1.54-2.73-2.02s-2.35-.72-3.78-.72c-1.82,0-3.42.37-4.81,1.13-1.39.76-2.65,1.74-3.78,2.96l-.36-2.7c-.17-.65-.6-.98-1.29-.98h-2.93v26.11h4.89v-19.17c.97-1.08,2.03-1.92,3.16-2.54,1.13-.62,2.36-.93,3.68-.93,1.78,0,3.11.53,3.98,1.58.87,1.05,1.32,2.52,1.32,4.41v16.65h4.88v-16.65c0-1.47-.19-2.81-.56-4.02-.38-1.22-.93-2.25-1.68-3.11Z"/>
    <path class="cls-1" d="M821.45,310.28c-.63-.51-1.34-.94-2.15-1.3-.81-.35-1.63-.66-2.47-.93-.84-.27-1.66-.54-2.47-.79-.81-.25-1.52-.53-2.15-.84s-1.13-.7-1.52-1.13c-.39-.44-.58-.98-.58-1.63,0-.52.12-.99.34-1.42.24-.44.56-.82.98-1.14.42-.33.93-.59,1.53-.77.6-.19,1.27-.29,2.01-.29.87,0,1.63.1,2.28.29.64.18,1.19.39,1.65.63.47.24.86.44,1.2.63.34.19.64.29.92.29.43,0,.76-.21,1-.62l1.08-1.78c-.97-.96-2.16-1.71-3.56-2.25s-2.96-.81-4.67-.81c-1.49,0-2.81.2-3.98.62-1.16.41-2.15.97-2.94,1.67-.8.71-1.41,1.52-1.82,2.44-.42.93-.62,1.9-.62,2.91,0,1.13.19,2.09.58,2.87.38.78.89,1.44,1.52,1.99.63.55,1.34,1,2.14,1.35.81.35,1.63.66,2.49.94.84.27,1.68.53,2.48.77.81.24,1.52.52,2.15.84.63.33,1.13.72,1.52,1.18.39.46.58,1.05.58,1.75,0,.55-.1,1.07-.31,1.57-.21.5-.53.93-.95,1.3-.43.37-.96.66-1.61.89-.64.23-1.4.34-2.28.34-1.03,0-1.89-.12-2.59-.36-.69-.24-1.28-.5-1.77-.78s-.91-.54-1.25-.79c-.34-.24-.67-.35-1-.35-.31,0-.57.06-.77.19-.21.13-.38.31-.52.55l-1.13,1.85c1.03.93,2.3,1.69,3.79,2.29,1.51.6,3.17.9,4.98.9,1.62,0,3.03-.21,4.27-.64,1.23-.43,2.28-1.02,3.13-1.77.84-.75,1.49-1.64,1.92-2.68.44-1.03.66-2.15.66-3.37,0-1.04-.2-1.94-.58-2.69-.39-.75-.89-1.38-1.52-1.9Z"/>
    <path class="cls-1" d="M845.8,316c-.98,1.08-2.03,1.92-3.18,2.53-1.14.61-2.36.91-3.67.91-1.78,0-3.11-.53-3.98-1.58s-1.32-2.52-1.32-4.41v-16.65h-4.88v16.65c0,1.47.19,2.81.56,4.03.38,1.21.93,2.24,1.66,3.1.73.87,1.63,1.54,2.72,2.02s2.36.72,3.79.72c1.82,0,3.42-.37,4.8-1.13,1.38-.75,2.64-1.74,3.77-2.96l.39,2.7c.17.65.6.98,1.29.98h2.93v-26.11h-4.89v19.2Z"/>
    <rect class="cls-1" x="857.89" y="284.97" width="4.89" height="37.95"/>
    <path class="cls-1" d="M882.8,318.26c-.09-.07-.22-.1-.37-.1-.14,0-.29.05-.47.17-.18.13-.39.26-.64.42-.24.15-.53.29-.87.41s-.74.18-1.21.18c-.83,0-1.49-.26-2-.78-.51-.53-.76-1.31-.76-2.36v-15.41h7.44v-3.55h-7.44v-8.82h-2.47c-.31,0-.55.08-.74.25s-.32.38-.38.65l-1.11,7.9-4.25.57v1.95c0,.34.09.61.28.79.19.17.43.26.73.26h3.06v15.75c0,2.2.56,3.88,1.7,5.05,1.13,1.16,2.74,1.74,4.84,1.74,1.2,0,2.36-.2,3.49-.62,1.13-.41,2.1-.99,2.92-1.74l-1.44-2.34c-.1-.17-.2-.29-.3-.36Z"/>
    <path class="cls-1" d="M905.03,299.08c-.78-.86-1.75-1.54-2.9-2.02-1.15-.47-2.46-.72-3.94-.72-2.04,0-3.9.34-5.59,1.03-1.7.69-3.27,1.72-4.73,3.1l.88,1.59c.17.25.37.45.6.64.24.18.53.27.86.27.42,0,.83-.15,1.23-.42.42-.27.89-.58,1.43-.91.54-.34,1.18-.64,1.92-.93.75-.28,1.68-.42,2.8-.42,1.64,0,2.9.5,3.74,1.51.85,1,1.28,2.49,1.28,4.46v1.96c-2.97.06-5.47.34-7.51.82-2.03.48-3.68,1.1-4.94,1.84-1.26.74-2.17,1.59-2.72,2.53-.56.94-.84,1.93-.84,2.96,0,1.19.19,2.21.57,3.08.39.86.91,1.59,1.57,2.17.66.59,1.43,1.02,2.33,1.31.89.28,1.85.42,2.88.42s1.9-.08,2.7-.25,1.56-.42,2.28-.74c.71-.33,1.39-.74,2.04-1.23s1.32-1.04,1.98-1.66l.54,2.34c.15.44.35.74.62.9.25.15.63.24,1.11.24h2.16v-16.67c0-1.47-.2-2.81-.61-4.04-.4-1.22-.99-2.26-1.77-3.12ZM902.63,316.51c-.52.54-1.03,1.01-1.55,1.43-.51.42-1.05.77-1.62,1.06-.58.29-1.2.52-1.86.67-.65.15-1.37.23-2.14.23-.58,0-1.13-.07-1.63-.22-.51-.15-.95-.36-1.33-.66-.38-.3-.67-.69-.89-1.17-.22-.48-.32-1.06-.32-1.72s.2-1.32.62-1.9c.41-.57,1.06-1.06,1.96-1.48.91-.41,2.08-.74,3.51-1,1.44-.25,3.19-.42,5.26-.49v5.25Z"/>
    <path class="cls-1" d="M938.59,286.1c-.31-.31-.67-.55-1.09-.74-.43-.18-.86-.27-1.33-.27s-.9.09-1.3.27c-.41.18-.76.43-1.06.74-.3.31-.54.67-.72,1.09-.18.43-.27.86-.27,1.33s.09.91.27,1.32.42.77.72,1.07.65.54,1.06.72c.4.18.84.27,1.3.27s.9-.09,1.33-.27c.42-.18.78-.42,1.09-.72s.56-.66.74-1.07c.19-.41.29-.85.29-1.32s-.1-.9-.29-1.33c-.18-.42-.44-.78-.74-1.09Z"/>
    <path class="cls-1" d="M920.37,288.41h-2.47c-.31,0-.55.08-.74.25s-.32.38-.38.65l-1.11,7.9-4.25.57v1.95c0,.34.09.61.28.79.19.17.43.26.73.26h3.06v15.75c0,2.2.56,3.88,1.7,5.05,1.13,1.16,2.74,1.74,4.84,1.74,1.2,0,2.36-.2,3.49-.62,1.13-.41,2.1-.99,2.92-1.74l-1.44-2.34c-.1-.17-.2-.29-.3-.36-.09-.07-.22-.1-.37-.1-.14,0-.29.05-.47.17-.18.13-.39.26-.64.42-.24.15-.53.29-.87.41s-.74.18-1.21.18c-.83,0-1.49-.26-2-.78-.51-.53-.76-1.31-.76-2.36v-15.41h13.22v22.13h4.89v-25.68h-18.12v-8.82Z"/>
    <path class="cls-1" d="M966.04,300.01c-1.08-1.16-2.4-2.06-3.94-2.69-1.54-.63-3.28-.93-5.19-.93s-3.66.31-5.21.93c-1.55.63-2.88,1.52-3.97,2.69-1.09,1.17-1.92,2.58-2.51,4.24-.58,1.65-.87,3.51-.87,5.56s.29,3.92.87,5.58c.58,1.67,1.42,3.09,2.51,4.25,1.09,1.17,2.41,2.06,3.97,2.69,1.55.63,3.29.94,5.21.94s3.65-.32,5.19-.94c1.54-.63,2.86-1.52,3.94-2.69,1.08-1.16,1.92-2.58,2.5-4.25.58-1.66.87-3.52.87-5.58s-.29-3.91-.87-5.56c-.58-1.66-1.42-3.07-2.5-4.24ZM962.52,316.94c-1.23,1.69-3.1,2.52-5.61,2.52s-4.43-.84-5.67-2.52c-1.24-1.68-1.87-4.05-1.87-7.1s.63-5.4,1.87-7.1c1.24-1.7,3.13-2.55,5.67-2.55s4.37.85,5.61,2.55c1.23,1.7,1.85,4.07,1.85,7.1s-.62,5.42-1.85,7.1Z"/>
    <path class="cls-1" d="M994.72,299.13c-.74-.87-1.64-1.54-2.73-2.02s-2.35-.72-3.78-.72c-1.82,0-3.42.37-4.81,1.13-1.39.76-2.65,1.74-3.78,2.96l-.36-2.7c-.17-.65-.6-.98-1.29-.98h-2.93v26.11h4.89v-19.17c.97-1.08,2.03-1.92,3.16-2.54,1.13-.62,2.36-.93,3.68-.93,1.78,0,3.11.53,3.98,1.58s1.32,2.52,1.32,4.41v16.65h4.88v-16.65c0-1.47-.19-2.81-.56-4.02-.38-1.22-.93-2.25-1.68-3.11Z"/>
    <path class="cls-1" d="M1018.56,310.28c-.63-.51-1.34-.94-2.15-1.3-.81-.35-1.63-.66-2.47-.93-.84-.27-1.66-.54-2.47-.79-.81-.25-1.52-.53-2.15-.84-.63-.32-1.13-.7-1.52-1.13-.39-.44-.58-.98-.58-1.63,0-.52.12-.99.34-1.42.24-.44.56-.82.98-1.14s.93-.59,1.53-.77c.6-.19,1.27-.29,2.01-.29.87,0,1.63.1,2.28.29.64.18,1.19.39,1.65.63.47.24.86.44,1.2.63.34.19.64.29.92.29.43,0,.76-.21,1-.62l1.08-1.78c-.97-.96-2.16-1.71-3.56-2.25-1.4-.54-2.96-.81-4.67-.81-1.49,0-2.81.2-3.98.62-1.16.41-2.15.97-2.94,1.67-.8.71-1.41,1.52-1.82,2.44-.42.93-.62,1.9-.62,2.91,0,1.13.19,2.09.58,2.87.38.78.89,1.44,1.52,1.99.63.55,1.34,1,2.14,1.35.81.35,1.63.66,2.49.94.84.27,1.68.53,2.48.77.81.24,1.52.52,2.15.84.63.33,1.13.72,1.52,1.18.39.46.58,1.05.58,1.75,0,.55-.1,1.07-.31,1.57-.21.5-.53.93-.95,1.3-.43.37-.96.66-1.61.89s-1.4.34-2.28.34c-1.03,0-1.89-.12-2.59-.36-.69-.24-1.28-.5-1.77-.78-.49-.28-.91-.54-1.25-.79-.34-.24-.67-.35-1-.35-.31,0-.57.06-.77.19-.21.13-.38.31-.52.55l-1.13,1.85c1.03.93,2.3,1.69,3.79,2.29,1.51.6,3.17.9,4.98.9,1.62,0,3.03-.21,4.27-.64,1.23-.43,2.28-1.02,3.13-1.77.84-.75,1.49-1.64,1.92-2.68.44-1.03.66-2.15.66-3.37,0-1.04-.2-1.94-.58-2.69-.39-.75-.89-1.38-1.52-1.9Z"/>
    <polygon class="cls-1" points="356.94 75.69 398.27 75.69 398.27 54.03 356.94 54.03 356.94 23.41 406.56 23.41 406.56 1.83 328.72 1.83 328.72 122.75 356.94 122.75 356.94 75.69"/>
    <path class="cls-1" d="M428.89,109.88c4.48,4.48,9.93,7.97,16.35,10.46,6.42,2.49,13.67,3.73,21.74,3.73s15.24-1.24,21.66-3.73c6.42-2.49,11.87-5.97,16.35-10.46,4.48-4.48,7.93-9.82,10.33-16.02,2.41-6.19,3.61-13,3.61-20.41V1.83h-28.05v71.62c0,4.26-.54,8.06-1.62,11.41-1.08,3.35-2.64,6.18-4.69,8.51-2.05,2.33-4.55,4.11-7.51,5.35-2.96,1.24-6.32,1.87-10.08,1.87s-7.12-.62-10.08-1.87c-2.96-1.25-5.46-3.05-7.51-5.4-2.05-2.35-3.61-5.2-4.69-8.55-1.08-3.35-1.62-7.15-1.62-11.41V1.83h-28.05v71.62c0,7.41,1.19,14.22,3.57,20.41,2.38,6.2,5.81,11.54,10.29,16.02Z"/>
    <polygon class="cls-1" points="558.43 122.75 586.48 122.75 586.48 24.07 620.51 24.07 620.51 1.83 524.41 1.83 524.41 24.07 558.43 24.07 558.43 122.75"/>
    <path class="cls-1" d="M639.82,109.89c4.49,4.49,9.96,7.98,16.38,10.43,6.42,2.5,13.67,3.76,21.75,3.76,4.8,0,9.34-.47,13.56-1.36,2.82-.57,5.53-1.41,8.09-2.4,6.42-2.45,11.84-5.95,16.33-10.43,4.49-4.49,7.93-9.81,10.33-16.02,2.4-6.21,3.65-12.99,3.65-20.45V1.8h-28.07v71.62c0,4.28-.57,8.09-1.62,11.42-1.1,3.34-2.66,6.21-4.69,8.5-2.03,2.35-4.54,4.12-7.51,5.37-2.97,1.25-6.31,1.88-10.07,1.88s-7.15-.63-10.12-1.88c-2.92-1.25-5.43-3.08-7.51-5.42-2.03-2.35-3.6-5.16-4.64-8.5-1.1-3.39-1.67-7.2-1.67-11.42V1.8h-28.01v71.62c0,7.46,1.2,14.24,3.55,20.45,2.4,6.21,5.84,11.53,10.28,16.02Z"/>
    <path class="cls-1" d="M771.7,78.02h7.15c2.19,0,3.86.31,5.01.99,1.2.68,2.24,1.77,3.13,3.34l20.08,35.11c2.03,3.5,5.42,5.27,10.12,5.27h25.41l-25.72-42.05c-1.25-1.98-2.66-3.7-4.28-5.06-1.62-1.41-3.39-2.56-5.27-3.5,3.91-1.51,7.41-3.39,10.38-5.74,3.03-2.3,5.58-4.96,7.67-7.93,2.09-2.92,3.65-6.16,4.7-9.65,1.04-3.5,1.57-7.2,1.57-11.11,0-5.16-.89-9.91-2.66-14.29-1.77-4.38-4.59-8.14-8.5-11.37-3.91-3.18-8.92-5.69-15.13-7.51-6.16-1.77-13.62-2.71-22.33-2.71h-39.33v120.92h28.01v-44.71ZM771.68,58.53V22.84h.02s11.32-.01,11.32-.01c3.61,0,6.74.38,9.41,1.12,0,0,.02,0,.03,0,.22.06.39.16.61.23,2.38.74,4.42,1.75,6.04,3.11,1.26,1.09,2.21,2.4,3,3.81,1.38,2.44,2.16,5.29,2.16,8.67,0,2.61-.42,5.11-1.15,7.41-.16.46-.42.86-.62,1.3-.77,1.74-1.77,3.33-3.11,4.74-.74.74-1.58,1.39-2.51,1.95-.05.03-.12.05-.17.08-.93.6-1.99,1.1-3.1,1.55-.3.12-.51.3-.82.41-.11.04-.27.04-.38.07-1.8.62-3.89.96-6.15,1.15-.16.01-.27.07-.44.08h-.56l-8.18,5.58c-.37.28-.93-.09-.93-.56v-4.88h-4.44v-.04h-.02v-.09Z"/>
    <polygon class="cls-1" points="927.42 101.18 877.75 101.18 877.75 72.39 915.78 72.39 915.78 51.62 877.75 51.62 877.75 23.4 927.42 23.4 927.42 1.8 849.58 1.8 849.58 122.73 927.42 122.73 927.42 101.18"/>
    <rect class="cls-1" x="328.72" y="139.17" width="28.22" height="120.92"/>
    <path class="cls-1" d="M399.01,183.41l57.01,72.04c1.38,1.77,2.82,2.99,4.32,3.65,1.49.67,3.32,1,5.48,1h14.61v-120.92h-24.73v63.98c0,1.94.05,4,.17,6.18.11,2.19.28,4.44.5,6.77l-57.43-72.62c-.78-.94-1.47-1.69-2.07-2.24-.61-.55-1.25-.98-1.91-1.29-.66-.3-1.41-.51-2.24-.62-.83-.11-1.85-.17-3.07-.17h-14.77v120.92h24.73v-64.82c0-1.77-.06-3.66-.17-5.69-.11-2.02-.25-4.08-.41-6.18Z"/>
    <path class="cls-1" d="M560.55,249.76c3.68-3.62,6.49-7.87,8.42-12.74,1.94-4.87,2.9-10.1,2.9-15.69,0-5.04-.77-9.34-2.32-12.91-1.55-3.57-3.58-6.6-6.1-9.08-2.52-2.49-5.39-4.54-8.63-6.14-3.24-1.6-6.54-3-9.92-4.19-3.38-1.19-6.68-2.27-9.92-3.23-3.23-.97-6.11-2.04-8.63-3.19-2.52-1.16-4.55-2.54-6.1-4.15-1.55-1.61-2.33-3.63-2.33-6.06,0-3.82,1.29-6.85,3.86-9.09,2.57-2.24,6.49-3.36,11.74-3.36,3.04,0,5.75.4,8.13,1.2,2.38.8,4.49,1.7,6.35,2.69,1.86,1,3.51,1.9,4.98,2.7,1.46.8,2.83,1.2,4.11,1.2,1.44,0,2.61-.34,3.53-1,.91-.67,1.79-1.66,2.61-2.99l6.97-13.03c-2.16-1.99-4.6-3.78-7.34-5.35-2.74-1.58-5.69-2.93-8.84-4.07-3.15-1.13-6.49-1.99-10-2.57-3.51-.58-7.12-.87-10.83-.87-6.64,0-12.53,1.01-17.68,3.03-5.15,2.02-9.49,4.72-13.03,8.09-3.54,3.38-6.22,7.22-8.05,11.54-1.83,4.32-2.74,8.74-2.74,13.28,0,5.64.77,10.39,2.33,14.23,1.55,3.85,3.58,7.05,6.1,9.63,2.52,2.57,5.38,4.65,8.59,6.22,3.21,1.57,6.5,2.9,9.88,3.98,3.38,1.08,6.67,2.06,9.88,2.95,3.21.89,6.07,1.91,8.59,3.07,2.52,1.16,4.55,2.63,6.1,4.4,1.55,1.77,2.33,4.07,2.33,6.89,0,4.87-1.41,8.42-4.23,10.66s-6.78,3.36-11.87,3.36c-3.76,0-7.03-.52-9.79-1.58-2.77-1.05-5.22-2.21-7.35-3.48-2.13-1.27-4.04-2.43-5.73-3.49-1.69-1.05-3.36-1.57-5.02-1.57-1.27,0-2.46.3-3.57.91-1.11.61-1.96,1.41-2.57,2.41l-8.3,13.11c2.38,2.38,5.17,4.53,8.38,6.47,3.21,1.94,6.64,3.61,10.29,5.02,3.65,1.41,7.43,2.5,11.33,3.28,3.9.77,7.73,1.16,11.49,1.16,6.86,0,12.99-1.04,18.38-3.11,5.39-2.08,9.93-4.92,13.61-8.55Z"/>
    <rect class="cls-1" x="583.83" y="139.17" width="28.22" height="120.92"/>
    <path class="cls-1" d="M731.05,248.47v-51.04h-42.99v15.44c0,1.44.5,2.63,1.49,3.57.99.94,2.38,1.41,4.15,1.41h11.95v18.34c-2.66,1.11-5.48,1.99-8.46,2.66-2.99.66-6.42,1-10.29,1-5.09,0-9.78-.9-14.07-2.7-4.29-1.8-8-4.41-11.12-7.84-3.13-3.43-5.58-7.64-7.34-12.62-1.77-4.98-2.66-10.67-2.66-17.09,0-5.81.8-11.08,2.41-15.81,1.6-4.73,3.88-8.78,6.85-12.16,2.96-3.38,6.54-5.99,10.74-7.85,4.21-1.85,8.93-2.78,14.19-2.78,2.82,0,5.37.14,7.64.42,2.27.28,4.42.72,6.47,1.33,2.05.61,4.05,1.4,6.02,2.36,1.96.97,4.05,2.12,6.27,3.45,1.77,1.11,3.48,1.66,5.15,1.66,1.27,0,2.45-.33,3.53-.99,1.08-.67,2.01-1.58,2.78-2.74l8.13-12.36c-2.44-2.33-5.2-4.48-8.3-6.47-3.1-1.99-6.51-3.7-10.25-5.14-3.73-1.44-7.81-2.57-12.24-3.4-4.43-.83-9.16-1.25-14.19-1.25-9.74,0-18.55,1.52-26.43,4.57-7.88,3.05-14.6,7.3-20.17,12.78-5.56,5.48-9.83,11.99-12.82,19.54-2.99,7.55-4.48,15.84-4.48,24.86s1.56,17.06,4.69,24.61c3.13,7.55,7.44,14.08,12.95,19.59,5.5,5.5,12.02,9.82,19.55,12.95,7.52,3.13,15.71,4.69,24.56,4.69,4.92,0,9.53-.25,13.82-.75,4.29-.5,8.33-1.27,12.12-2.33,3.79-1.05,7.36-2.39,10.71-4.02,3.35-1.63,6.57-3.58,9.67-5.85Z"/>
    <polygon class="cls-1" points="771.88 208.97 821.01 208.97 821.01 260.09 849.23 260.09 849.23 139.17 821.01 139.17 821.01 189.71 771.88 189.71 771.88 139.17 743.67 139.17 743.67 260.09 771.88 260.09 771.88 208.97"/>
    <polygon class="cls-1" points="890.39 260.09 918.45 260.09 918.45 161.41 952.47 161.41 952.47 139.17 856.37 139.17 856.37 161.41 890.39 161.41 890.39 260.09"/>
    <path class="cls-1" d="M1033.3,208.43c-1.55-3.57-3.58-6.6-6.1-9.08-2.52-2.49-5.39-4.54-8.63-6.14-3.24-1.6-6.54-3-9.92-4.19-3.38-1.19-6.68-2.27-9.92-3.23-3.23-.97-6.11-2.04-8.63-3.19-2.52-1.16-4.55-2.54-6.1-4.15-1.55-1.61-2.33-3.63-2.33-6.06,0-3.82,1.29-6.85,3.86-9.09,2.57-2.24,6.49-3.36,11.74-3.36,3.04,0,5.75.4,8.13,1.2,2.38.8,4.49,1.7,6.35,2.69,1.86,1,3.51,1.9,4.98,2.7,1.46.8,2.83,1.2,4.11,1.2,1.44,0,2.61-.34,3.53-1,.91-.67,1.79-1.66,2.61-2.99l6.97-13.03c-2.16-1.99-4.6-3.78-7.34-5.35-2.74-1.58-5.69-2.93-8.84-4.07-3.15-1.13-6.49-1.99-10-2.57-3.51-.58-7.12-.87-10.83-.87-6.64,0-12.53,1.01-17.68,3.03-5.15,2.02-9.49,4.72-13.03,8.09-3.54,3.38-6.22,7.22-8.05,11.54-1.83,4.32-2.74,8.74-2.74,13.28,0,5.64.77,10.39,2.32,14.23,1.55,3.85,3.58,7.05,6.1,9.63,2.52,2.57,5.38,4.65,8.59,6.22,3.21,1.57,6.5,2.9,9.87,3.98,3.38,1.08,6.67,2.06,9.88,2.95,3.21.89,6.07,1.91,8.59,3.07,2.52,1.16,4.55,2.63,6.1,4.4,1.55,1.77,2.33,4.07,2.33,6.89,0,4.87-1.41,8.42-4.23,10.66-2.82,2.24-6.78,3.36-11.87,3.36-3.76,0-7.03-.52-9.79-1.58-2.77-1.05-5.22-2.21-7.34-3.48-2.13-1.27-4.04-2.43-5.73-3.49-1.69-1.05-3.36-1.57-5.02-1.57-1.27,0-2.46.3-3.57.91-1.11.61-1.96,1.41-2.57,2.41l-8.3,13.11c2.38,2.38,5.17,4.53,8.38,6.47,3.21,1.94,6.64,3.61,10.29,5.02,3.65,1.41,7.43,2.5,11.33,3.28,3.9.77,7.73,1.16,11.49,1.16,6.86,0,12.99-1.04,18.38-3.11,5.39-2.08,9.93-4.92,13.61-8.55,3.68-3.62,6.49-7.87,8.42-12.74,1.94-4.87,2.9-10.1,2.9-15.69,0-5.04-.77-9.34-2.32-12.91Z"/>
  </g>
</svg>