<?xml version="1.0" encoding="UTF-8"?>
<svg id="Layer_1" data-name="Layer 1" xmlns="http://www.w3.org/2000/svg" viewBox="0 0 1041.25 334.09">
  <defs>
    <style>
      .cls-1 {
        fill: #253568;
      }

      .cls-2 {
        fill: none;
      }

      .cls-3 {
        fill: #c49a6c;
      }

      .cls-4 {
        fill: #262262;
      }

      .cls-5 {
        fill: #355093;
      }
    </style>
  </defs>
  <g>
    <polygon class="cls-4" points="174.03 .02 174.03 40.46 127.45 87.04 40.4 174.09 0 174.09 0 91.43 87.02 4.42 91.38 .02 174.03 .02"/>
    <polygon class="cls-4" points="163.46 174.09 76.44 261.1 0 261.1 0 214.49 40.4 174.09 163.46 174.09"/>
    <polygon class="cls-3" points="261.05 87.04 261.05 261.1 174.03 261.1 174.03 163.52 250.54 87.04 261.05 87.04"/>
    <polygon class="cls-3" points="261.05 .02 261.05 76.54 250.54 87.04 174.03 87.04 174.03 40.46 214.47 .02 261.05 .02"/>
  </g>
  <g>
    <path class="cls-2" d="M644.7,303.42c-.57-.62-1.26-1.11-2.06-1.47-.82-.36-1.74-.53-2.79-.53-2.17,0-3.87.62-5.11,1.88-1.24,1.26-2.01,3-2.32,5.22h14.01c0-1.05-.15-2-.44-2.86-.29-.87-.72-1.61-1.28-2.24Z"/>
    <path class="cls-2" d="M799.72,54.05c-.93.63-2,1.11-3.13,1.57,1.12-.45,2.19-.96,3.13-1.57Z"/>
    <path class="cls-2" d="M795.39,22.39c-2.7-.75-5.86-1.13-9.51-1.13h-11.44s11.44.01,11.44.01c3.65,0,6.81.38,9.51,1.12Z"/>
    <path class="cls-2" d="M806.18,45.88c-.15.47-.42.87-.61,1.31.2-.44.46-.84.62-1.31.74-2.32,1.16-4.85,1.16-7.49,0-3.41-.78-6.3-2.18-8.76,1.38,2.46,2.14,5.35,2.14,8.73,0,2.63-.38,5.17-1.13,7.52Z"/>
    <rect class="cls-2" x="774.44" y="57.44" width="4.49" height=".04"/>
    <path class="cls-2" d="M795.37,56.1c-1.85.56-3.93.96-6.22,1.16,2.29-.19,4.4-.54,6.22-1.16Z"/>
    <path class="cls-2" d="M762.42,301.65c-2.57,0-4.48.86-5.73,2.58s-1.89,4.11-1.89,7.18.63,5.48,1.89,7.18c1.26,1.71,3.17,2.55,5.73,2.55s4.42-.84,5.67-2.55c1.25-1.7,1.87-4.09,1.87-7.18s-.62-5.46-1.87-7.18c-1.25-1.72-3.14-2.58-5.67-2.58Z"/>
    <path class="cls-2" d="M533.99,326.46c0,.58.15,1.11.44,1.61.29.49.74.92,1.34,1.27.6.36,1.36.64,2.28.85.93.2,2.03.31,3.29.31s2.36-.12,3.33-.34c.96-.23,1.78-.54,2.44-.94.66-.4,1.17-.87,1.51-1.42.34-.54.51-1.15.51-1.81,0-.62-.17-1.13-.53-1.5-.36-.39-.83-.69-1.44-.91-.61-.23-1.31-.39-2.11-.47-.8-.09-1.63-.16-2.52-.21-.88-.06-1.79-.1-2.72-.16-.93-.06-1.82-.14-2.66-.26-.95.45-1.71,1-2.29,1.66s-.88,1.43-.88,2.31Z"/>
    <path class="cls-2" d="M456.11,314.34c-.91.42-1.57.92-1.98,1.5-.42.59-.62,1.22-.62,1.92s.1,1.26.32,1.74c.22.49.51.88.9,1.18.38.3.83.52,1.34.67.5.15,1.06.22,1.65.22.78,0,1.5-.07,2.17-.23.67-.16,1.29-.39,1.88-.68.58-.29,1.13-.65,1.64-1.07.52-.43,1.05-.91,1.57-1.45v-5.3c-2.08.07-3.85.24-5.31.5-1.45.26-2.63.6-3.55,1.01Z"/>
    <path class="cls-2" d="M511.14,314.34c-.91.42-1.57.92-1.98,1.5-.42.59-.62,1.22-.62,1.92s.1,1.26.32,1.74c.22.49.51.88.9,1.18.38.3.83.52,1.34.67.5.15,1.06.22,1.65.22.78,0,1.5-.07,2.17-.23.67-.16,1.29-.39,1.88-.68.58-.29,1.13-.65,1.64-1.07.52-.43,1.05-.91,1.57-1.45v-5.3c-2.08.07-3.85.24-5.31.5-1.45.26-2.63.6-3.55,1.01Z"/>
    <path class="cls-2" d="M574.27,303.42c-.57-.62-1.26-1.11-2.06-1.47-.82-.36-1.74-.53-2.79-.53-2.17,0-3.87.62-5.11,1.88-1.24,1.26-2.01,3-2.32,5.22h14.01c0-1.05-.15-2-.44-2.86-.29-.87-.72-1.61-1.28-2.24Z"/>
    <path class="cls-2" d="M540.99,301.29c-1.82,0-3.2.46-4.15,1.39s-1.41,2.17-1.41,3.73c0,.74.12,1.43.36,2.06.25.62.61,1.17,1.07,1.62.47.46,1.05.82,1.73,1.06.7.26,1.5.38,2.39.38s1.72-.12,2.42-.38c.69-.25,1.28-.6,1.74-1.06.47-.45.82-.98,1.05-1.61.24-.62.36-1.32.36-2.08,0-1.56-.48-2.81-1.42-3.73-.95-.93-2.32-1.39-4.15-1.39Z"/>
    <path class="cls-2" d="M353.67,301.65c-2.57,0-4.48.86-5.73,2.58-1.26,1.72-1.89,4.11-1.89,7.18s.63,5.48,1.89,7.18c1.26,1.71,3.17,2.55,5.73,2.55s4.42-.84,5.67-2.55c1.25-1.7,1.87-4.09,1.87-7.18s-.62-5.46-1.87-7.18c-1.25-1.72-3.14-2.58-5.67-2.58Z"/>
    <path class="cls-2" d="M795.42,22.39c.22.06.4.17.62.23-.22-.07-.39-.17-.62-.23Z"/>
    <path class="cls-2" d="M961.68,301.65c-2.57,0-4.48.86-5.73,2.58-1.26,1.72-1.89,4.11-1.89,7.18s.63,5.48,1.89,7.18c1.26,1.71,3.17,2.55,5.73,2.55s4.42-.84,5.67-2.55c1.25-1.7,1.87-4.09,1.87-7.18s-.62-5.46-1.87-7.18-3.14-2.58-5.67-2.58Z"/>
    <path class="cls-2" d="M897.94,314.34c-.91.42-1.57.92-1.98,1.5-.42.59-.62,1.22-.62,1.92s.1,1.26.32,1.74c.22.49.51.88.9,1.18.38.3.83.52,1.34.67.5.15,1.06.22,1.65.22.78,0,1.5-.07,2.17-.23.67-.16,1.29-.39,1.88-.68.58-.29,1.13-.65,1.64-1.07.52-.43,1.05-.91,1.57-1.45v-5.3c-2.08.07-3.85.24-5.31.5-1.45.26-2.63.6-3.55,1.01Z"/>
    <path class="cls-5" d="M335.95,286.72c-1.4,0-2.67.21-3.81.64-1.13.42-2.1,1.04-2.9,1.84s-1.41,1.8-1.84,2.98c-.44,1.17-.65,2.51-.65,4.03v2.44h-4.13v2.06c0,.37.12.65.36.84.24.2.56.34.96.4l2.81.34v22.31h4.94v-22.37h7.34v-3.59h-7.49v-2.28c0-1.09.12-2.02.37-2.77.24-.75.59-1.36,1.05-1.81s1.01-.78,1.65-.97c.64-.2,1.36-.3,2.16-.3h.94c.28,0,.52-.03.72-.07.21-.06.38-.14.5-.25.12-.12.19-.28.21-.49l.11-2.5c-.5-.16-1.03-.28-1.59-.37-.56-.08-1.11-.13-1.69-.13Z"/>
    <path class="cls-5" d="M362.9,301.47c-1.09-1.17-2.42-2.08-3.98-2.72-1.56-.63-3.31-.95-5.25-.95s-3.7.31-5.27.95c-1.57.63-2.9,1.54-4.01,2.72-1.1,1.18-1.95,2.61-2.54,4.28-.59,1.67-.89,3.55-.89,5.62s.29,3.96.89,5.64c.59,1.69,1.44,3.12,2.54,4.29,1.1,1.18,2.44,2.08,4.01,2.72,1.57.63,3.32.95,5.27.95s3.69-.32,5.25-.95c1.56-.63,2.89-1.53,3.98-2.72,1.09-1.17,1.93-2.61,2.52-4.29.59-1.68.89-3.56.89-5.64s-.3-3.95-.89-5.62c-.59-1.68-1.43-3.1-2.52-4.28ZM359.33,318.58c-1.25,1.71-3.14,2.55-5.67,2.55s-4.48-.84-5.73-2.55c-1.26-1.7-1.89-4.09-1.89-7.18s.63-5.46,1.89-7.18c1.26-1.72,3.17-2.58,5.73-2.58s4.42.86,5.67,2.58c1.25,1.72,1.87,4.11,1.87,7.18s-.62,5.48-1.87,7.18Z"/>
    <path class="cls-5" d="M384.1,297.75c-1.71,0-3.16.5-4.37,1.5-1.21,1.01-2.24,2.39-3.07,4.14l-.31-3.84c-.06-.5-.2-.85-.4-1.05-.19-.19-.57-.28-1.11-.28h-2.83v26.4h4.94v-16.57c.33-.86.7-1.63,1.08-2.31.39-.67.83-1.25,1.34-1.72.5-.47,1.06-.83,1.71-1.06.62-.24,1.36-.37,2.17-.37.57,0,1.1.06,1.58.16.48.11.83.16,1.08.16.44,0,.72-.23.83-.7l.33-3.7c-.37-.26-.83-.45-1.34-.57-.5-.12-1.05-.18-1.61-.18Z"/>
    <path class="cls-5" d="M438.19,287.43c-.27.08-.51.35-.74.78l-12.38,22.52c-.24.46-.46.92-.66,1.39s-.39.96-.59,1.47c-.38-1-.79-1.94-1.22-2.81l-12.62-22.57c-.22-.43-.47-.7-.74-.78-.27-.09-.63-.13-1.1-.13h-3.98v37.32h4.71v-26.84c0-.4-.02-.83-.05-1.28-.04-.45-.07-.91-.11-1.38l12.8,23.04c.41.82,1.06,1.22,1.95,1.22h.76c.41,0,.79-.1,1.13-.31.34-.2.61-.5.79-.91l12.54-22.94c-.04.45-.06.89-.08,1.33-.02.43-.03.83-.03,1.22v26.84h4.71v-37.32h-3.97c-.47,0-.84.04-1.11.13Z"/>
    <path class="cls-5" d="M467.41,300.52c-.79-.87-1.77-1.56-2.93-2.05-1.17-.48-2.49-.72-3.98-.72-2.06,0-3.95.35-5.65,1.04-1.72.7-3.3,1.73-4.78,3.13l.89,1.61c.17.25.38.46.61.64.24.18.53.28.87.28.42,0,.83-.15,1.25-.42.42-.28.9-.59,1.45-.92.54-.34,1.19-.65,1.95-.95.76-.28,1.7-.42,2.83-.42,1.66,0,2.93.5,3.78,1.52.86,1.01,1.29,2.51,1.29,4.51v1.98c-3,.06-5.53.35-7.59.83-2.06.49-3.72,1.11-4.99,1.86s-2.19,1.61-2.75,2.56c-.57.95-.84,1.95-.84,2.99,0,1.2.19,2.24.58,3.11.39.87.92,1.61,1.59,2.19.67.6,1.45,1.03,2.36,1.32.9.28,1.87.42,2.91.42s1.92-.08,2.73-.26,1.58-.42,2.3-.75c.72-.33,1.4-.74,2.06-1.24s1.33-1.06,2-1.68l.55,2.37c.16.45.36.75.62.91.26.16.63.24,1.12.24h2.18v-16.86c0-1.49-.2-2.84-.61-4.08-.4-1.23-1-2.28-1.79-3.16ZM464.98,318.14c-.52.54-1.05,1.02-1.57,1.45-.51.42-1.06.78-1.64,1.07-.59.29-1.21.52-1.88.68-.66.16-1.39.23-2.17.23-.59,0-1.15-.07-1.65-.22-.51-.15-.96-.37-1.34-.67-.39-.3-.68-.7-.9-1.18-.22-.49-.32-1.07-.32-1.74s.2-1.33.62-1.92c.41-.58,1.07-1.07,1.98-1.5.92-.41,2.1-.75,3.55-1.01,1.46-.26,3.23-.42,5.31-.5v5.3Z"/>
    <path class="cls-5" d="M496.6,300.58c-.74-.88-1.66-1.56-2.76-2.05s-2.38-.72-3.82-.72c-1.84,0-3.46.38-4.86,1.14-1.4.77-2.68,1.76-3.82,2.99l-.37-2.73c-.17-.66-.61-.99-1.3-.99h-2.96v26.4h4.95v-19.38c.98-1.09,2.06-1.95,3.19-2.57,1.15-.62,2.39-.94,3.73-.94,1.8,0,3.15.53,4.03,1.6.88,1.06,1.33,2.55,1.33,4.46v16.83h4.94v-16.83c0-1.49-.19-2.84-.57-4.06-.39-1.23-.95-2.28-1.7-3.15Z"/>
    <path class="cls-5" d="M522.43,300.52c-.79-.87-1.77-1.56-2.93-2.05-1.17-.48-2.49-.72-3.98-.72-2.06,0-3.95.35-5.65,1.04-1.72.7-3.3,1.73-4.78,3.13l.89,1.61c.17.25.38.46.61.64.24.18.53.28.87.28.42,0,.83-.15,1.25-.42.42-.28.9-.59,1.45-.92.54-.34,1.19-.65,1.95-.95.76-.28,1.7-.42,2.83-.42,1.66,0,2.93.5,3.78,1.52.86,1.01,1.29,2.51,1.29,4.51v1.98c-3,.06-5.53.35-7.59.83-2.06.49-3.72,1.11-4.99,1.86s-2.19,1.61-2.75,2.56c-.57.95-.84,1.95-.84,2.99,0,1.2.19,2.24.58,3.11.39.87.92,1.61,1.59,2.19.67.6,1.45,1.03,2.36,1.32.9.28,1.87.42,2.91.42s1.92-.08,2.73-.26,1.58-.42,2.3-.75c.72-.33,1.4-.74,2.06-1.24s1.33-1.06,2-1.68l.55,2.37c.16.45.36.75.62.91.26.16.63.24,1.12.24h2.18v-16.86c0-1.49-.2-2.84-.61-4.08-.4-1.23-1-2.28-1.79-3.16ZM520,318.14c-.52.54-1.05,1.02-1.57,1.45-.51.42-1.06.78-1.64,1.07-.59.29-1.21.52-1.88.68-.66.16-1.39.23-2.17.23-.59,0-1.15-.07-1.65-.22-.51-.15-.96-.37-1.34-.67-.39-.3-.68-.7-.9-1.18-.22-.49-.32-1.07-.32-1.74s.2-1.33.62-1.92c.41-.58,1.07-1.07,1.98-1.5.92-.41,2.1-.75,3.55-1.01,1.46-.26,3.23-.42,5.31-.5v5.3Z"/>
    <path class="cls-5" d="M544.17,298.15c-.97-.25-2.04-.38-3.18-.38-1.47,0-2.83.2-4.06.6-1.23.4-2.29.97-3.18,1.72-.9.74-1.6,1.64-2.09,2.68-.5,1.04-.76,2.21-.76,3.51,0,1.61.38,3.02,1.12,4.22.75,1.21,1.77,2.17,3.07,2.9-.56.28-1.05.61-1.47.96-.43.37-.78.75-1.07,1.16-.28.41-.5.82-.63,1.23-.14.4-.21.8-.21,1.18,0,.98.23,1.78.68,2.38s1.06,1.07,1.84,1.41c-1.4.5-2.5,1.2-3.31,2.1-.81.89-1.21,1.98-1.21,3.28,0,.92.24,1.8.72,2.64.48.83,1.19,1.58,2.16,2.22.96.64,2.17,1.16,3.62,1.53,1.45.39,3.15.58,5.08.58s3.69-.26,5.23-.75c1.54-.5,2.84-1.17,3.92-1.99,1.06-.83,1.88-1.77,2.44-2.84.56-1.06.84-2.17.84-3.32,0-1.23-.26-2.22-.76-2.99-.51-.76-1.18-1.36-2.02-1.81-.83-.44-1.78-.75-2.84-.95-1.06-.19-2.14-.32-3.25-.4-1.11-.07-2.19-.14-3.26-.17-1.06-.04-2-.13-2.84-.27-.83-.14-1.5-.36-2.01-.66-.51-.3-.77-.76-.77-1.37,0-.8.55-1.52,1.64-2.18,1.04.26,2.17.39,3.38.39,1.44,0,2.77-.2,3.99-.61,1.22-.39,2.28-.96,3.17-1.72.88-.74,1.57-1.63,2.06-2.68.5-1.04.74-2.21.74-3.5s-.28-2.53-.81-3.64l2.89-.41c.76-.16,1.14-.55,1.14-1.17v-1.82h-7.28c-.83-.47-1.74-.83-2.73-1.08ZM537.17,322.49c.84.12,1.73.2,2.66.26.93.06,1.84.1,2.72.16.89.06,1.72.12,2.52.21.8.08,1.5.24,2.11.47.61.22,1.08.52,1.44.91.36.38.53.88.53,1.5,0,.66-.17,1.27-.51,1.81-.35.55-.85,1.02-1.51,1.42-.66.39-1.48.71-2.44.94-.97.22-2.08.34-3.33.34s-2.37-.11-3.29-.31c-.93-.21-1.69-.5-2.28-.85-.6-.35-1.05-.78-1.34-1.27-.29-.5-.44-1.03-.44-1.61,0-.88.29-1.65.88-2.31s1.35-1.21,2.29-1.66ZM546.2,308.49c-.23.62-.58,1.16-1.05,1.61-.47.46-1.06.81-1.74,1.06-.7.26-1.5.38-2.42.38s-1.7-.12-2.39-.38c-.69-.25-1.27-.61-1.73-1.06-.47-.46-.83-1-1.07-1.62-.24-.62-.36-1.31-.36-2.06,0-1.56.47-2.81,1.41-3.73s2.33-1.39,4.15-1.39,3.2.46,4.15,1.39c.95.93,1.42,2.17,1.42,3.73,0,.76-.12,1.46-.36,2.08Z"/>
    <path class="cls-5" d="M577.27,300.9c-.98-1.01-2.16-1.77-3.5-2.3-1.36-.52-2.83-.79-4.42-.79-1.93,0-3.65.34-5.19,1.01-1.53.68-2.84,1.61-3.9,2.77-1.06,1.17-1.88,2.55-2.46,4.14-.57,1.59-.85,3.29-.85,5.14,0,2.28.31,4.31.95,6.06.63,1.76,1.51,3.24,2.64,4.42,1.13,1.19,2.47,2.09,4.02,2.71s3.24.93,5.06.93c.95,0,1.92-.08,2.9-.24s1.93-.4,2.85-.74c.92-.33,1.77-.76,2.57-1.27.8-.51,1.5-1.14,2.11-1.86l-1.4-1.8c-.19-.31-.5-.47-.92-.47-.31,0-.67.13-1.09.39-.41.26-.92.54-1.51.85-.61.31-1.31.6-2.14.86-.83.26-1.81.39-2.95.39-1.21,0-2.31-.19-3.3-.58-.98-.39-1.83-.98-2.53-1.77-.7-.79-1.26-1.78-1.66-2.98-.41-1.19-.64-2.6-.69-4.21h17.42c.45,0,.75-.13.92-.39.17-.27.25-.77.25-1.54,0-1.89-.28-3.56-.83-5.03-.56-1.47-1.33-2.7-2.32-3.71ZM561.98,308.52c.31-2.22,1.08-3.96,2.32-5.22,1.24-1.26,2.95-1.88,5.11-1.88,1.05,0,1.97.17,2.79.53.81.36,1.5.84,2.06,1.47.56.62.99,1.37,1.28,2.24.29.86.44,1.82.44,2.86h-14.01Z"/>
    <path class="cls-5" d="M613.1,297.81c-.86,0-1.72.1-2.56.31-.84.2-1.63.52-2.38.96-.75.43-1.42.98-2.03,1.66-.61.68-1.1,1.49-1.49,2.42-.49-1.65-1.28-2.95-2.37-3.92s-2.52-1.44-4.29-1.44c-1.59,0-2.98.37-4.18,1.12-1.19.74-2.28,1.7-3.25,2.85l-.34-2.57c-.17-.66-.61-.99-1.3-.99h-2.96v26.4h4.95v-19.61c.78-1.03,1.65-1.83,2.61-2.4.95-.59,1.98-.87,3.07-.87,1.6,0,2.81.5,3.63,1.5.83.99,1.23,2.51,1.23,4.56v16.83h4.95v-16.83c0-.99.15-1.86.44-2.62s.7-1.39,1.2-1.9c.5-.5,1.08-.88,1.75-1.15.67-.26,1.38-.39,2.12-.39,1.66,0,2.94.5,3.81,1.53.88,1.02,1.31,2.53,1.31,4.52v16.83h4.95v-16.83c0-3.2-.77-5.67-2.31-7.4-1.55-1.72-3.73-2.59-6.56-2.59Z"/>
    <path class="cls-5" d="M647.7,300.9c-.98-1.01-2.16-1.77-3.5-2.3-1.36-.52-2.83-.79-4.42-.79-1.93,0-3.65.34-5.19,1.01-1.53.68-2.84,1.61-3.9,2.77-1.06,1.17-1.88,2.55-2.46,4.14-.57,1.59-.85,3.29-.85,5.14,0,2.28.31,4.31.95,6.06.63,1.76,1.51,3.24,2.64,4.42,1.13,1.19,2.47,2.09,4.02,2.71,1.55.61,3.24.93,5.06.93.95,0,1.92-.08,2.9-.24s1.93-.4,2.85-.74c.92-.33,1.77-.76,2.57-1.27.8-.51,1.5-1.14,2.11-1.86l-1.4-1.8c-.19-.31-.5-.47-.92-.47-.31,0-.67.13-1.09.39-.41.26-.92.54-1.51.85-.61.31-1.31.6-2.14.86-.83.26-1.81.39-2.95.39-1.21,0-2.31-.19-3.3-.58-.98-.39-1.83-.98-2.53-1.77-.7-.79-1.26-1.78-1.66-2.98-.41-1.19-.64-2.6-.69-4.21h17.42c.45,0,.75-.13.92-.39.17-.27.25-.77.25-1.54,0-1.89-.28-3.56-.83-5.03-.56-1.47-1.33-2.7-2.32-3.71ZM632.41,308.52c.31-2.22,1.08-3.96,2.32-5.22,1.24-1.26,2.95-1.88,5.11-1.88,1.05,0,1.97.17,2.79.53.81.36,1.5.84,2.06,1.47.56.62.99,1.37,1.28,2.24.29.86.44,1.82.44,2.86h-14.01Z"/>
    <path class="cls-5" d="M676.27,300.58c-.74-.88-1.66-1.56-2.76-2.05s-2.38-.72-3.82-.72c-1.84,0-3.46.38-4.86,1.14-1.4.77-2.68,1.76-3.82,2.99l-.37-2.73c-.17-.66-.61-.99-1.3-.99h-2.96v26.4h4.95v-19.38c.98-1.09,2.06-1.95,3.19-2.57,1.15-.62,2.39-.94,3.73-.94,1.8,0,3.15.53,4.03,1.6.88,1.06,1.33,2.55,1.33,4.46v16.83h4.94v-16.83c0-1.49-.19-2.84-.57-4.06-.39-1.23-.95-2.28-1.7-3.15Z"/>
    <path class="cls-5" d="M698.03,319.91c-.09-.07-.22-.1-.38-.1-.14,0-.29.06-.48.17-.18.13-.39.27-.64.42-.24.16-.53.29-.88.41s-.75.18-1.22.18c-.83,0-1.5-.27-2.02-.79-.51-.53-.77-1.32-.77-2.39v-15.58h7.52v-3.59h-7.52v-8.92h-2.5c-.31,0-.56.08-.75.25s-.32.39-.39.66l-1.12,7.98-4.29.58v1.97c0,.35.09.61.28.8.19.17.43.27.73.27h3.09v15.92c0,2.22.57,3.92,1.72,5.1,1.15,1.17,2.77,1.76,4.89,1.76,1.21,0,2.39-.2,3.52-.62,1.14-.41,2.12-1,2.95-1.76l-1.46-2.37c-.1-.17-.2-.29-.3-.37Z"/>
    <path class="cls-5" d="M744.2,316.71c-.17,0-.33.05-.48.12-.15.08-.29.17-.43.3-.64.57-1.28,1.06-1.93,1.48-.64.42-1.33.75-2.06,1.02-.74.26-1.54.45-2.4.59-.87.13-1.85.19-2.95.19-1.76,0-3.42-.33-4.96-.97-1.54-.65-2.88-1.6-4.02-2.83s-2.03-2.74-2.68-4.54c-.65-1.79-.97-3.84-.97-6.12s.31-4.28.94-6.06c.62-1.78,1.5-3.29,2.62-4.52s2.48-2.17,4.05-2.84c1.57-.65,3.28-.98,5.17-.98,1.57,0,2.9.17,3.97.5,1.07.32,1.97.7,2.7,1.1.72.4,1.29.78,1.73,1.1.45.33.83.5,1.17.5.29,0,.52-.06.69-.17s.3-.26.42-.43l1.77-2.5c-1.52-1.44-3.31-2.59-5.37-3.46-2.06-.86-4.41-1.3-7.07-1.3s-5.17.47-7.42,1.4c-2.25.94-4.17,2.25-5.79,3.92-1.61,1.67-2.85,3.68-3.74,6.02-.88,2.34-1.32,4.92-1.32,7.73s.42,5.39,1.26,7.73c.84,2.34,2.04,4.35,3.59,6.03,1.55,1.69,3.43,2.99,5.62,3.93,2.19.94,4.64,1.4,7.34,1.4,3.07,0,5.71-.5,7.9-1.48,2.19-.99,4.05-2.38,5.58-4.17l-2.14-2.34c-.22-.22-.49-.34-.78-.34Z"/>
    <path class="cls-5" d="M771.65,301.47c-1.09-1.17-2.42-2.08-3.98-2.72-1.56-.63-3.31-.95-5.25-.95s-3.7.31-5.27.95c-1.57.63-2.91,1.54-4.01,2.72-1.1,1.18-1.95,2.61-2.53,4.28-.59,1.67-.88,3.55-.88,5.62s.29,3.96.88,5.64c.59,1.69,1.43,3.12,2.53,4.29,1.1,1.18,2.44,2.08,4.01,2.72,1.57.63,3.32.95,5.27.95s3.69-.32,5.25-.95c1.56-.63,2.89-1.53,3.98-2.72,1.09-1.17,1.94-2.61,2.52-4.29.59-1.68.88-3.56.88-5.64s-.29-3.95-.88-5.62c-.59-1.68-1.43-3.1-2.52-4.28ZM768.09,318.58c-1.25,1.71-3.14,2.55-5.67,2.55s-4.48-.84-5.73-2.55c-1.26-1.7-1.89-4.09-1.89-7.18s.63-5.46,1.89-7.18,3.17-2.58,5.73-2.58,4.42.86,5.67,2.58c1.25,1.72,1.87,4.11,1.87,7.18s-.62,5.48-1.87,7.18Z"/>
    <path class="cls-5" d="M800.63,300.58c-.74-.88-1.66-1.56-2.76-2.05s-2.38-.72-3.82-.72c-1.84,0-3.46.38-4.86,1.14-1.4.77-2.68,1.76-3.82,2.99l-.37-2.73c-.17-.66-.61-.99-1.3-.99h-2.96v26.4h4.95v-19.38c.98-1.09,2.06-1.95,3.19-2.57,1.15-.62,2.39-.94,3.73-.94,1.8,0,3.15.53,4.03,1.6.88,1.06,1.33,2.55,1.33,4.46v16.83h4.94v-16.83c0-1.49-.19-2.84-.57-4.06-.39-1.23-.95-2.28-1.7-3.15Z"/>
    <path class="cls-5" d="M824.73,311.84c-.63-.51-1.36-.95-2.17-1.31-.82-.36-1.65-.67-2.5-.95-.85-.28-1.68-.54-2.5-.8-.82-.25-1.54-.53-2.17-.85s-1.15-.71-1.53-1.15c-.39-.44-.59-.99-.59-1.65,0-.52.12-1,.35-1.44.24-.44.57-.83.99-1.16.42-.33.95-.6,1.55-.78.61-.19,1.28-.29,2.03-.29.88,0,1.65.1,2.3.29.65.18,1.2.39,1.67.63.48.24.87.45,1.21.63.34.19.65.29.93.29.43,0,.77-.21,1.01-.62l1.09-1.8c-.98-.97-2.18-1.72-3.6-2.28-1.41-.55-2.99-.82-4.73-.82-1.5,0-2.84.2-4.03.62-1.17.41-2.17.98-2.97,1.69-.81.72-1.42,1.53-1.84,2.47-.42.94-.62,1.92-.62,2.95,0,1.14.19,2.11.59,2.9.39.79.9,1.46,1.53,2.01.63.56,1.36,1.01,2.17,1.37.82.36,1.65.67,2.51.95.85.28,1.7.53,2.5.78.82.24,1.54.52,2.17.85.63.33,1.15.72,1.53,1.19.39.47.59,1.06.59,1.77,0,.56-.1,1.08-.31,1.59-.21.5-.53.95-.96,1.31-.43.38-.97.67-1.62.9-.65.23-1.41.34-2.3.34-1.04,0-1.91-.12-2.61-.37-.7-.24-1.29-.5-1.79-.79-.5-.28-.92-.55-1.27-.8-.34-.24-.68-.36-1.01-.36-.31,0-.58.06-.78.19-.21.13-.39.31-.52.56l-1.15,1.87c1.05.94,2.32,1.71,3.84,2.31,1.52.61,3.2.91,5.04.91,1.63,0,3.06-.21,4.31-.65,1.25-.43,2.3-1.03,3.17-1.79.85-.76,1.5-1.66,1.95-2.71.45-1.04.67-2.17.67-3.4,0-1.06-.2-1.96-.59-2.72-.39-.76-.9-1.39-1.53-1.92Z"/>
    <path class="cls-5" d="M849.35,317.62c-.99,1.09-2.06,1.95-3.21,2.56-1.16.61-2.39.92-3.71.92-1.8,0-3.15-.53-4.03-1.6s-1.33-2.55-1.33-4.46v-16.83h-4.94v16.83c0,1.49.19,2.84.57,4.07.39,1.22.95,2.27,1.68,3.14.73.88,1.65,1.56,2.75,2.05s2.39.72,3.84.72c1.84,0,3.46-.38,4.85-1.14,1.39-.76,2.67-1.76,3.81-2.99l.39,2.73c.17.66.61.99,1.3.99h2.96v-26.4h-4.95v19.41Z"/>
    <rect class="cls-5" x="861.57" y="286.25" width="4.95" height="38.36"/>
    <path class="cls-5" d="M886.76,319.91c-.09-.07-.22-.1-.38-.1-.14,0-.29.06-.48.17-.18.13-.39.27-.64.42-.24.16-.53.29-.88.41s-.75.18-1.22.18c-.83,0-1.5-.27-2.02-.79-.51-.53-.77-1.32-.77-2.39v-15.58h7.52v-3.59h-7.52v-8.92h-2.5c-.31,0-.56.08-.75.25s-.32.39-.39.66l-1.12,7.98-4.29.58v1.97c0,.35.09.61.28.8.19.17.43.27.73.27h3.09v15.92c0,2.22.57,3.92,1.72,5.1,1.15,1.17,2.77,1.76,4.89,1.76,1.21,0,2.39-.2,3.52-.62,1.14-.41,2.12-1,2.95-1.76l-1.46-2.37c-.1-.17-.2-.29-.3-.37Z"/>
    <path class="cls-5" d="M909.23,300.52c-.79-.87-1.77-1.56-2.93-2.05-1.17-.48-2.49-.72-3.98-.72-2.06,0-3.95.35-5.65,1.04-1.72.7-3.3,1.73-4.78,3.13l.89,1.61c.17.25.38.46.61.64.24.18.53.28.87.28.42,0,.83-.15,1.25-.42.42-.28.9-.59,1.45-.92.54-.34,1.19-.65,1.95-.95.76-.28,1.7-.42,2.83-.42,1.66,0,2.93.5,3.78,1.52.86,1.01,1.29,2.51,1.29,4.51v1.98c-3,.06-5.53.35-7.59.83-2.06.49-3.72,1.11-4.99,1.86-1.28.75-2.19,1.61-2.75,2.56-.57.95-.84,1.95-.84,2.99,0,1.2.19,2.24.58,3.11.39.87.92,1.61,1.59,2.19.67.6,1.45,1.03,2.36,1.32.9.28,1.87.42,2.91.42s1.92-.08,2.73-.26,1.58-.42,2.3-.75c.72-.33,1.4-.74,2.06-1.24s1.33-1.06,2-1.68l.55,2.37c.16.45.36.75.62.91.26.16.63.24,1.12.24h2.18v-16.86c0-1.49-.2-2.84-.61-4.08-.4-1.23-1-2.28-1.79-3.16ZM906.8,318.14c-.52.54-1.05,1.02-1.57,1.45-.51.42-1.06.78-1.64,1.07-.59.29-1.21.52-1.88.68-.66.16-1.39.23-2.17.23-.59,0-1.15-.07-1.65-.22-.51-.15-.96-.37-1.34-.67-.39-.3-.68-.7-.9-1.18-.22-.49-.32-1.07-.32-1.74s.2-1.33.62-1.92c.41-.58,1.07-1.07,1.98-1.5.92-.41,2.1-.75,3.55-1.01,1.46-.26,3.23-.42,5.31-.5v5.3Z"/>
    <path class="cls-5" d="M943.15,287.4c-.31-.31-.68-.56-1.1-.74-.43-.18-.87-.28-1.34-.28s-.91.09-1.31.28c-.41.18-.77.43-1.07.74-.3.31-.54.68-.72,1.1-.18.43-.28.87-.28,1.34s.09.92.28,1.33.42.78.72,1.08.66.54,1.07.72c.4.18.84.28,1.31.28s.91-.09,1.34-.28c.42-.18.79-.42,1.1-.72s.57-.67.75-1.08c.19-.41.29-.86.29-1.33s-.1-.91-.29-1.34c-.18-.42-.44-.79-.75-1.1Z"/>
    <path class="cls-5" d="M924.74,289.74h-2.5c-.31,0-.56.08-.75.25s-.32.39-.39.66l-1.12,7.98-4.29.58v1.97c0,.35.09.61.28.8.19.17.43.27.73.27h3.09v15.92c0,2.22.57,3.92,1.72,5.1,1.15,1.17,2.77,1.76,4.89,1.76,1.21,0,2.39-.2,3.52-.62,1.14-.41,2.12-1,2.95-1.76l-1.46-2.37c-.1-.17-.2-.29-.3-.37-.09-.07-.22-.1-.38-.1-.14,0-.29.06-.48.17-.18.13-.39.27-.64.42-.24.16-.53.29-.88.41s-.75.18-1.22.18c-.83,0-1.5-.27-2.02-.79-.51-.53-.77-1.32-.77-2.39v-15.58h13.37v22.37h4.95v-25.96h-18.31v-8.92Z"/>
    <path class="cls-5" d="M970.91,301.47c-1.09-1.17-2.42-2.08-3.98-2.72-1.56-.63-3.31-.95-5.25-.95s-3.7.31-5.27.95c-1.57.63-2.91,1.54-4.01,2.72-1.1,1.18-1.95,2.61-2.53,4.28-.59,1.67-.88,3.55-.88,5.62s.29,3.96.88,5.64c.59,1.69,1.43,3.12,2.53,4.29,1.1,1.18,2.44,2.08,4.01,2.72,1.57.63,3.32.95,5.27.95s3.69-.32,5.25-.95c1.56-.63,2.89-1.53,3.98-2.72,1.09-1.17,1.94-2.61,2.52-4.29.59-1.68.88-3.56.88-5.64s-.29-3.95-.88-5.62c-.59-1.68-1.43-3.1-2.52-4.28ZM967.35,318.58c-1.25,1.71-3.14,2.55-5.67,2.55s-4.48-.84-5.73-2.55c-1.26-1.7-1.89-4.09-1.89-7.18s.63-5.46,1.89-7.18c1.26-1.72,3.17-2.58,5.73-2.58s4.42.86,5.67,2.58,1.87,4.11,1.87,7.18-.62,5.48-1.87,7.18Z"/>
    <path class="cls-5" d="M999.9,300.58c-.74-.88-1.66-1.56-2.76-2.05s-2.38-.72-3.82-.72c-1.84,0-3.46.38-4.86,1.14-1.4.77-2.68,1.76-3.82,2.99l-.37-2.73c-.17-.66-.61-.99-1.3-.99h-2.96v26.4h4.95v-19.38c.98-1.09,2.06-1.95,3.19-2.57,1.15-.62,2.39-.94,3.73-.94,1.8,0,3.15.53,4.03,1.6.88,1.06,1.33,2.55,1.33,4.46v16.83h4.94v-16.83c0-1.49-.19-2.84-.57-4.06-.39-1.23-.95-2.28-1.7-3.15Z"/>
    <path class="cls-5" d="M1024,311.84c-.63-.51-1.36-.95-2.17-1.31-.82-.36-1.65-.67-2.5-.95-.85-.28-1.68-.54-2.5-.8-.82-.25-1.54-.53-2.17-.85-.63-.32-1.15-.71-1.53-1.15-.39-.44-.59-.99-.59-1.65,0-.52.12-1,.35-1.44.24-.44.57-.83.99-1.16s.95-.6,1.55-.78c.61-.19,1.28-.29,2.03-.29.88,0,1.65.1,2.3.29.65.18,1.2.39,1.67.63.48.24.87.45,1.21.63.34.19.65.29.93.29.43,0,.77-.21,1.01-.62l1.09-1.8c-.98-.97-2.18-1.72-3.6-2.28-1.41-.55-2.99-.82-4.73-.82-1.5,0-2.84.2-4.03.62-1.17.41-2.17.98-2.97,1.69-.81.72-1.42,1.53-1.84,2.47-.42.94-.62,1.92-.62,2.95,0,1.14.19,2.11.59,2.9.39.79.9,1.46,1.53,2.01.63.56,1.36,1.01,2.17,1.37.82.36,1.65.67,2.51.95.85.28,1.7.53,2.5.78.82.24,1.54.52,2.17.85.63.33,1.15.72,1.53,1.19.39.47.59,1.06.59,1.77,0,.56-.1,1.08-.31,1.59-.21.5-.53.95-.96,1.31-.43.38-.97.67-1.62.9-.65.23-1.41.34-2.3.34-1.04,0-1.91-.12-2.61-.37-.7-.24-1.29-.5-1.79-.79-.5-.28-.92-.55-1.27-.8-.34-.24-.68-.36-1.01-.36-.31,0-.58.06-.78.19-.21.13-.39.31-.52.56l-1.15,1.87c1.05.94,2.32,1.71,3.84,2.31,1.52.61,3.2.91,5.04.91,1.63,0,3.06-.21,4.31-.65,1.25-.43,2.3-1.03,3.17-1.79.85-.76,1.5-1.66,1.95-2.71.45-1.04.67-2.17.67-3.4,0-1.06-.2-1.96-.59-2.72-.39-.76-.9-1.39-1.53-1.92Z"/>
    <polygon class="cls-1" points="355.15 74.69 396.93 74.69 396.93 52.8 355.15 52.8 355.15 21.84 405.32 21.84 405.32 .02 326.62 .02 326.62 122.26 355.15 122.26 355.15 74.69"/>
    <path class="cls-1" d="M427.89,109.26c4.53,4.53,10.04,8.06,16.53,10.57,6.49,2.52,13.81,3.77,21.98,3.77s15.41-1.26,21.9-3.77c6.49-2.52,12-6.04,16.53-10.57,4.53-4.53,8.01-9.93,10.45-16.19,2.43-6.26,3.65-13.14,3.65-20.64V.02h-28.36v72.4c0,4.31-.54,8.15-1.64,11.53-1.09,3.39-2.67,6.25-4.74,8.6-2.07,2.35-4.6,4.15-7.59,5.41-2.99,1.26-6.39,1.89-10.19,1.89s-7.2-.63-10.19-1.89c-2.99-1.26-5.52-3.08-7.59-5.46-2.07-2.38-3.65-5.26-4.74-8.64-1.09-3.39-1.64-7.23-1.64-11.54V.02h-28.36v72.4c0,7.5,1.2,14.37,3.61,20.64,2.41,6.27,5.87,11.66,10.4,16.19Z"/>
    <polygon class="cls-1" points="558.85 122.26 587.2 122.26 587.2 22.51 621.6 22.51 621.6 .02 524.45 .02 524.45 22.51 558.85 22.51 558.85 122.26"/>
    <path class="cls-1" d="M641.13,109.27c4.53,4.54,10.07,8.07,16.56,10.55,6.49,2.53,13.82,3.8,21.99,3.8,4.85,0,9.44-.47,13.71-1.37,2.85-.58,5.59-1.42,8.17-2.43,6.49-2.48,11.97-6.01,16.51-10.55,4.54-4.54,8.02-9.91,10.44-16.19,2.43-6.28,3.69-13.13,3.69-20.67V0h-28.37v72.41c0,4.32-.58,8.17-1.63,11.55-1.11,3.38-2.69,6.28-4.75,8.6-2.06,2.37-4.59,4.17-7.59,5.43-3.01,1.27-6.38,1.9-10.18,1.9s-7.22-.63-10.23-1.9c-2.95-1.27-5.49-3.11-7.59-5.48-2.06-2.37-3.64-5.22-4.69-8.6-1.11-3.43-1.69-7.28-1.69-11.55V0h-28.32v72.41c0,7.54,1.21,14.4,3.59,20.67,2.43,6.28,5.91,11.65,10.39,16.19Z"/>
    <path class="cls-1" d="M774.44,77.05h7.22c2.22,0,3.9.32,5.06,1,1.21.69,2.27,1.79,3.16,3.37l20.3,35.49c2.06,3.53,5.48,5.33,10.23,5.33h25.68l-26-42.5c-1.27-2-2.69-3.74-4.32-5.12-1.63-1.42-3.43-2.58-5.33-3.53,3.96-1.53,7.49-3.43,10.49-5.8,3.06-2.32,5.64-5.01,7.75-8.02,2.11-2.95,3.69-6.22,4.75-9.76,1.05-3.53,1.58-7.28,1.58-11.23,0-5.22-.9-10.02-2.69-14.45-1.79-4.43-4.64-8.23-8.6-11.5-3.96-3.22-9.02-5.75-15.29-7.59-6.22-1.79-13.76-2.74-22.57-2.74h-39.76v122.24h28.32v-45.19ZM774.42,57.34V21.26h.02s11.44-.01,11.44-.01c3.65,0,6.81.38,9.51,1.13,0,0,.02,0,.03,0,.22.06.4.17.62.23,2.41.75,4.46,1.77,6.1,3.15,1.28,1.1,2.23,2.43,3.03,3.86,1.4,2.46,2.18,5.35,2.18,8.76,0,2.64-.42,5.17-1.16,7.49-.16.47-.42.87-.62,1.31-.78,1.76-1.79,3.37-3.14,4.8-.75.75-1.6,1.41-2.54,1.97-.05.03-.12.05-.17.09-.94.61-2.01,1.11-3.13,1.57-.3.12-.51.3-.83.42-.11.04-.27.04-.39.07-1.82.63-3.93.97-6.22,1.16-.16.01-.28.07-.44.08h-.56l-8.27,5.64c-.38.28-.94-.09-.94-.56v-4.93h-4.49v-.04h-.02v-.09Z"/>
    <polygon class="cls-1" points="931.86 100.46 881.66 100.46 881.66 71.35 920.1 71.35 920.1 50.36 881.66 50.36 881.66 21.83 931.86 21.83 931.86 0 853.18 0 853.18 122.24 931.86 122.24 931.86 100.46"/>
    <rect class="cls-1" x="326.62" y="138.87" width="28.52" height="122.24"/>
    <path class="cls-1" d="M397.68,183.58l57.64,72.82c1.4,1.79,2.85,3.02,4.36,3.69,1.51.67,3.36,1.01,5.54,1.01h14.77v-122.24h-25v64.68c0,1.96.05,4.04.17,6.25.11,2.21.28,4.49.5,6.84l-58.05-73.41c-.78-.95-1.48-1.7-2.1-2.26-.62-.56-1.26-.99-1.93-1.3-.67-.31-1.43-.52-2.27-.63-.84-.11-1.88-.17-3.11-.17h-14.93v122.24h25v-65.52c0-1.79-.06-3.7-.17-5.75-.11-2.04-.25-4.12-.42-6.25Z"/>
    <path class="cls-1" d="M560.99,250.66c3.72-3.66,6.56-7.96,8.51-12.88,1.96-4.92,2.93-10.21,2.93-15.86,0-5.09-.78-9.44-2.35-13.05-1.57-3.61-3.62-6.67-6.17-9.18-2.55-2.52-5.45-4.59-8.72-6.21-3.27-1.62-6.62-3.03-10.02-4.24-3.41-1.2-6.76-2.29-10.03-3.27-3.27-.98-6.18-2.06-8.72-3.23-2.55-1.18-4.6-2.57-6.16-4.19-1.57-1.62-2.35-3.67-2.35-6.13,0-3.86,1.3-6.92,3.9-9.19,2.6-2.27,6.56-3.4,11.87-3.4,3.07,0,5.82.4,8.22,1.22,2.4.81,4.54,1.72,6.42,2.72,1.88,1.01,3.55,1.92,5.04,2.73,1.48.81,2.86,1.22,4.15,1.22,1.45,0,2.64-.34,3.56-1.01.92-.67,1.81-1.68,2.64-3.02l7.05-13.17c-2.18-2.01-4.65-3.82-7.42-5.41-2.77-1.6-5.75-2.97-8.93-4.11-3.19-1.14-6.56-2.01-10.11-2.6-3.55-.59-7.2-.88-10.95-.88-6.71,0-12.67,1.02-17.87,3.06-5.2,2.04-9.6,4.77-13.17,8.18-3.58,3.41-6.29,7.3-8.14,11.66-1.85,4.36-2.77,8.84-2.77,13.42,0,5.7.78,10.5,2.35,14.39,1.56,3.89,3.62,7.13,6.16,9.73,2.54,2.6,5.44,4.7,8.69,6.29,3.24,1.59,6.57,2.93,9.98,4.02,3.41,1.09,6.74,2.09,9.99,2.98,3.24.9,6.14,1.93,8.68,3.1,2.55,1.18,4.6,2.66,6.17,4.45,1.56,1.79,2.35,4.11,2.35,6.97,0,4.92-1.43,8.51-4.28,10.78s-6.85,3.4-12,3.4c-3.81,0-7.1-.53-9.9-1.6-2.8-1.06-5.27-2.23-7.43-3.52-2.15-1.29-4.08-2.46-5.79-3.53-1.7-1.06-3.4-1.59-5.07-1.59-1.29,0-2.49.31-3.61.92-1.12.62-1.98,1.42-2.6,2.43l-8.39,13.26c2.4,2.4,5.23,4.58,8.47,6.54,3.25,1.96,6.71,3.65,10.41,5.08,3.69,1.42,7.51,2.53,11.45,3.31,3.94.78,7.81,1.18,11.62,1.18,6.93,0,13.13-1.05,18.59-3.15,5.45-2.1,10.04-4.98,13.76-8.64Z"/>
    <rect class="cls-1" x="584.52" y="138.87" width="28.52" height="122.24"/>
    <path class="cls-1" d="M733.35,249.36v-51.6h-43.46v15.6c0,1.46.5,2.66,1.51,3.61,1,.95,2.4,1.42,4.19,1.42h12.08v18.54c-2.68,1.12-5.54,2.01-8.56,2.68-3.02.67-6.49,1.01-10.4,1.01-5.15,0-9.89-.91-14.22-2.73-4.33-1.82-8.08-4.46-11.24-7.93-3.16-3.47-5.64-7.72-7.42-12.76-1.79-5.03-2.69-10.79-2.69-17.28,0-5.87.81-11.2,2.43-15.98,1.62-4.78,3.93-8.88,6.92-12.29,2.99-3.41,6.61-6.06,10.86-7.93,4.25-1.87,9.03-2.81,14.35-2.81,2.85,0,5.42.14,7.72.42,2.29.28,4.47.73,6.54,1.34,2.07.61,4.1,1.41,6.08,2.39,1.98.98,4.1,2.14,6.34,3.48,1.79,1.12,3.52,1.68,5.2,1.68,1.28,0,2.48-.33,3.56-1,1.09-.67,2.03-1.6,2.81-2.77l8.22-12.5c-2.46-2.35-5.26-4.53-8.39-6.55-3.13-2.01-6.58-3.74-10.36-5.2-3.77-1.45-7.9-2.6-12.37-3.44-4.48-.84-9.26-1.26-14.34-1.26-9.85,0-18.75,1.54-26.72,4.62-7.97,3.08-14.76,7.38-20.39,12.92-5.62,5.54-9.94,12.12-12.96,19.76-3.02,7.63-4.53,16.01-4.53,25.13s1.58,17.24,4.74,24.88c3.16,7.64,7.52,14.24,13.09,19.8,5.56,5.56,12.15,9.93,19.76,13.09,7.6,3.16,15.88,4.74,24.83,4.74,4.98,0,9.63-.25,13.97-.75,4.33-.5,8.42-1.29,12.25-2.35,3.83-1.06,7.44-2.42,10.82-4.07,3.38-1.65,6.64-3.62,9.77-5.91Z"/>
    <polygon class="cls-1" points="774.63 209.42 824.29 209.42 824.29 261.1 852.82 261.1 852.82 138.87 824.29 138.87 824.29 189.96 774.63 189.96 774.63 138.87 746.1 138.87 746.1 261.1 774.63 261.1 774.63 209.42"/>
    <polygon class="cls-1" points="894.43 261.1 922.79 261.1 922.79 161.35 957.19 161.35 957.19 138.87 860.03 138.87 860.03 161.35 894.43 161.35 894.43 261.1"/>
    <path class="cls-1" d="M1038.9,208.88c-1.57-3.61-3.62-6.67-6.17-9.18-2.54-2.52-5.45-4.59-8.72-6.21-3.27-1.62-6.62-3.03-10.02-4.24-3.41-1.2-6.76-2.29-10.03-3.27-3.27-.98-6.18-2.06-8.72-3.23-2.55-1.18-4.6-2.57-6.16-4.19-1.57-1.62-2.35-3.67-2.35-6.13,0-3.86,1.3-6.92,3.9-9.19,2.6-2.27,6.56-3.4,11.87-3.4,3.07,0,5.82.4,8.22,1.22,2.4.81,4.54,1.72,6.42,2.72,1.88,1.01,3.55,1.92,5.04,2.73,1.48.81,2.86,1.22,4.15,1.22,1.45,0,2.64-.34,3.56-1.01.92-.67,1.81-1.68,2.64-3.02l7.05-13.17c-2.18-2.01-4.65-3.82-7.42-5.41-2.77-1.6-5.75-2.97-8.93-4.11-3.19-1.14-6.56-2.01-10.11-2.6-3.55-.59-7.2-.88-10.95-.88-6.71,0-12.67,1.02-17.87,3.06-5.2,2.04-9.6,4.77-13.17,8.18-3.58,3.41-6.29,7.3-8.14,11.66-1.85,4.36-2.77,8.84-2.77,13.42,0,5.7.78,10.5,2.35,14.39,1.56,3.89,3.62,7.13,6.16,9.73,2.55,2.6,5.44,4.7,8.69,6.29,3.24,1.59,6.57,2.93,9.98,4.02,3.41,1.09,6.74,2.09,9.99,2.98,3.24.9,6.14,1.93,8.68,3.1,2.55,1.18,4.6,2.66,6.17,4.45,1.56,1.79,2.35,4.11,2.35,6.97,0,4.92-1.43,8.51-4.28,10.78-2.85,2.26-6.85,3.4-12,3.4-3.81,0-7.1-.53-9.9-1.6-2.8-1.06-5.27-2.23-7.42-3.52-2.15-1.29-4.08-2.46-5.79-3.53-1.7-1.06-3.4-1.59-5.07-1.59-1.29,0-2.49.31-3.61.92-1.12.62-1.98,1.42-2.6,2.43l-8.39,13.26c2.41,2.4,5.23,4.58,8.47,6.54,3.25,1.96,6.71,3.65,10.41,5.08,3.69,1.42,7.51,2.53,11.45,3.31,3.94.78,7.81,1.18,11.62,1.18,6.93,0,13.13-1.05,18.59-3.15,5.45-2.1,10.04-4.98,13.76-8.64,3.72-3.66,6.56-7.96,8.51-12.88,1.96-4.92,2.93-10.21,2.93-15.86,0-5.09-.78-9.44-2.35-13.05Z"/>
    <path class="cls-3" d="M778.93,57.44v4.98c0,.47.56.85.94.56l8.27-5.64h.56c.16-.01.28-.07.44-.08,2.29-.2,4.37-.6,6.22-1.16.12-.03.27-.04.39-.07.32-.11.53-.29.83-.42,1.13-.46,2.2-.94,3.13-1.57.05-.03.12-.05.17-.09.94-.56,1.79-1.22,2.54-1.97,1.35-1.43,2.37-3.03,3.14-4.8.19-.44.46-.84.61-1.31.75-2.35,1.13-4.89,1.13-7.52,0-3.39-.76-6.27-2.14-8.73-.8-1.43-1.75-2.75-3.03-3.86-1.64-1.38-3.7-2.4-6.1-3.15-.22-.07-.39-.17-.62-.23,0,0-.02,0-.03,0-2.7-.75-5.86-1.12-9.51-1.12h-11.46v36.17h4.51Z"/>
  </g>
</svg>